<svg width="43" height="2798" viewBox="0 0 43 2798" fill="none" xmlns="http://www.w3.org/2000/svg">
<g filter="url(#filter0_i_44_35)">
<path d="M14.5579 18.1398C14.4648 18.1398 14.2707 18.0911 14.0192 17.995C12.5163 17.6365 8.51103 16.556 8.05795 14.1398C7.4771 11.0422 11.4641 11.5422 11.0579 14.1398C10.7275 16.2532 12.921 17.5756 14.0192 17.995C14.443 18.0961 14.6679 18.1398 14.5579 18.1398Z" fill="#282861"/>
<path d="M14.5579 19C14.4648 19 14.2707 19.0487 14.0192 19.1448C12.5163 19.5032 8.51103 20.5838 8.05795 23C7.4771 26.0976 11.4641 25.5975 11.0579 23C10.7275 20.8865 12.921 19.5642 14.0192 19.1448C14.443 19.0437 14.6679 19 14.5579 19Z" fill="#282861"/>
<path d="M3.58118 16.1162C8.3988 17.0778 10.8732 17.5662 15 18.5308C15 18.5308 8.31319 19.4319 3.58118 19.9628C-1.15083 20.4937 -1.23644 15.1546 3.58118 16.1162Z" fill="#282861"/>
<path d="M14.5579 54.1398C14.4648 54.1398 14.2707 54.0911 14.0192 53.995C12.5163 53.6365 8.51103 52.556 8.05795 50.1398C7.4771 47.0422 11.4641 47.5422 11.0579 50.1398C10.7275 52.2532 12.921 53.5756 14.0192 53.995C14.443 54.0961 14.6679 54.1398 14.5579 54.1398Z" fill="#282861"/>
<path d="M14.5579 55C14.4648 55 14.2707 55.0487 14.0192 55.1448C12.5163 55.5032 8.51103 56.5838 8.05795 59C7.4771 62.0976 11.4641 61.5975 11.0579 59C10.7275 56.8865 12.921 55.5642 14.0192 55.1448C14.443 55.0437 14.6679 55 14.5579 55Z" fill="#282861"/>
<path d="M3.58118 52.1162C8.3988 53.0778 10.8732 53.5662 15 54.5308C15 54.5308 8.31319 55.4319 3.58118 55.9628C-1.15083 56.4937 -1.23644 51.1546 3.58118 52.1162Z" fill="#282861"/>
<path d="M14.5579 54.1398C14.4648 54.1398 14.2707 54.0911 14.0192 53.995C12.5163 53.6365 8.51103 52.556 8.05795 50.1398C7.4771 47.0422 11.4641 47.5422 11.0579 50.1398C10.7275 52.2532 12.921 53.5756 14.0192 53.995C14.443 54.0961 14.6679 54.1398 14.5579 54.1398Z" fill="#282861"/>
<path d="M14.5579 55C14.4648 55 14.2707 55.0487 14.0192 55.1448C12.5163 55.5032 8.51103 56.5838 8.05795 59C7.4771 62.0976 11.4641 61.5975 11.0579 59C10.7275 56.8865 12.921 55.5642 14.0192 55.1448C14.443 55.0437 14.6679 55 14.5579 55Z" fill="#282861"/>
<path d="M3.58118 52.1162C8.3988 53.0778 10.8732 53.5662 15 54.5308C15 54.5308 8.31319 55.4319 3.58118 55.9628C-1.15083 56.4937 -1.23644 51.1546 3.58118 52.1162Z" fill="#282861"/>
<path d="M14.5579 90.1398C14.4648 90.1398 14.2707 90.0911 14.0192 89.995C12.5163 89.6365 8.51103 88.556 8.05795 86.1398C7.4771 83.0422 11.4641 83.5422 11.0579 86.1398C10.7275 88.2532 12.921 89.5756 14.0192 89.995C14.443 90.0961 14.6679 90.1398 14.5579 90.1398Z" fill="#282861"/>
<path d="M14.5579 91C14.4648 91 14.2707 91.0487 14.0192 91.1448C12.5163 91.5032 8.51103 92.5838 8.05795 95C7.4771 98.0976 11.4641 97.5975 11.0579 95C10.7275 92.8865 12.921 91.5642 14.0192 91.1448C14.443 91.0437 14.6679 91 14.5579 91Z" fill="#282861"/>
<path d="M3.58118 88.1162C8.3988 89.0778 10.8732 89.5662 15 90.5308C15 90.5308 8.31319 91.4319 3.58118 91.9628C-1.15083 92.4937 -1.23644 87.1546 3.58118 88.1162Z" fill="#282861"/>
<path d="M14.5579 126.14C14.4648 126.14 14.2707 126.091 14.0192 125.995C12.5163 125.637 8.51103 124.556 8.05795 122.14C7.4771 119.042 11.4641 119.542 11.0579 122.14C10.7275 124.253 12.921 125.576 14.0192 125.995C14.443 126.096 14.6679 126.14 14.5579 126.14Z" fill="#282861"/>
<path d="M14.5579 127C14.4648 127 14.2707 127.049 14.0192 127.145C12.5163 127.503 8.51103 128.584 8.05795 131C7.4771 134.098 11.4641 133.598 11.0579 131C10.7275 128.887 12.921 127.564 14.0192 127.145C14.443 127.044 14.6679 127 14.5579 127Z" fill="#282861"/>
<path d="M3.58118 124.116C8.3988 125.078 10.8732 125.566 15 126.531C15 126.531 8.31319 127.432 3.58118 127.963C-1.15083 128.494 -1.23644 123.155 3.58118 124.116Z" fill="#282861"/>
<path d="M14.5579 162.14C14.4648 162.14 14.2707 162.091 14.0192 161.995C12.5163 161.637 8.51103 160.556 8.05795 158.14C7.4771 155.042 11.4641 155.542 11.0579 158.14C10.7275 160.253 12.921 161.576 14.0192 161.995C14.443 162.096 14.6679 162.14 14.5579 162.14Z" fill="#282861"/>
<path d="M14.5579 163C14.4648 163 14.2707 163.049 14.0192 163.145C12.5163 163.503 8.51103 164.584 8.05795 167C7.4771 170.098 11.4641 169.598 11.0579 167C10.7275 164.887 12.921 163.564 14.0192 163.145C14.443 163.044 14.6679 163 14.5579 163Z" fill="#282861"/>
<path d="M3.58118 160.116C8.3988 161.078 10.8732 161.566 15 162.531C15 162.531 8.31319 163.432 3.58118 163.963C-1.15083 164.494 -1.23644 159.155 3.58118 160.116Z" fill="#282861"/>
<path d="M14.5579 198.14C14.4648 198.14 14.2707 198.091 14.0192 197.995C12.5163 197.637 8.51103 196.556 8.05795 194.14C7.4771 191.042 11.4641 191.542 11.0579 194.14C10.7275 196.253 12.921 197.576 14.0192 197.995C14.443 198.096 14.6679 198.14 14.5579 198.14Z" fill="#282861"/>
<path d="M14.5579 199C14.4648 199 14.2707 199.049 14.0192 199.145C12.5163 199.503 8.51103 200.584 8.05795 203C7.4771 206.098 11.4641 205.598 11.0579 203C10.7275 200.887 12.921 199.564 14.0192 199.145C14.443 199.044 14.6679 199 14.5579 199Z" fill="#282861"/>
<path d="M3.58118 196.116C8.3988 197.078 10.8732 197.566 15 198.531C15 198.531 8.31319 199.432 3.58118 199.963C-1.15083 200.494 -1.23644 195.155 3.58118 196.116Z" fill="#282861"/>
<path d="M14.5579 234.14C14.4648 234.14 14.2707 234.091 14.0192 233.995C12.5163 233.637 8.51103 232.556 8.05795 230.14C7.4771 227.042 11.4641 227.542 11.0579 230.14C10.7275 232.253 12.921 233.576 14.0192 233.995C14.443 234.096 14.6679 234.14 14.5579 234.14Z" fill="#282861"/>
<path d="M14.5579 235C14.4648 235 14.2707 235.049 14.0192 235.145C12.5163 235.503 8.51103 236.584 8.05795 239C7.4771 242.098 11.4641 241.598 11.0579 239C10.7275 236.887 12.921 235.564 14.0192 235.145C14.443 235.044 14.6679 235 14.5579 235Z" fill="#282861"/>
<path d="M3.58118 232.116C8.3988 233.078 10.8732 233.566 15 234.531C15 234.531 8.31319 235.432 3.58118 235.963C-1.15083 236.494 -1.23644 231.155 3.58118 232.116Z" fill="#282861"/>
<path d="M14.5579 270.14C14.4648 270.14 14.2707 270.091 14.0192 269.995C12.5163 269.637 8.51103 268.556 8.05795 266.14C7.4771 263.042 11.4641 263.542 11.0579 266.14C10.7275 268.253 12.921 269.576 14.0192 269.995C14.443 270.096 14.6679 270.14 14.5579 270.14Z" fill="#282861"/>
<path d="M14.5579 271C14.4648 271 14.2707 271.049 14.0192 271.145C12.5163 271.503 8.51103 272.584 8.05795 275C7.4771 278.098 11.4641 277.598 11.0579 275C10.7275 272.887 12.921 271.564 14.0192 271.145C14.443 271.044 14.6679 271 14.5579 271Z" fill="#282861"/>
<path d="M3.58118 268.116C8.3988 269.078 10.8732 269.566 15 270.531C15 270.531 8.31319 271.432 3.58118 271.963C-1.15083 272.494 -1.23644 267.155 3.58118 268.116Z" fill="#282861"/>
<path d="M14.5579 306.14C14.4648 306.14 14.2707 306.091 14.0192 305.995C12.5163 305.637 8.51103 304.556 8.05795 302.14C7.4771 299.042 11.4641 299.542 11.0579 302.14C10.7275 304.253 12.921 305.576 14.0192 305.995C14.443 306.096 14.6679 306.14 14.5579 306.14Z" fill="#282861"/>
<path d="M14.5579 307C14.4648 307 14.2707 307.049 14.0192 307.145C12.5163 307.503 8.51103 308.584 8.05795 311C7.4771 314.098 11.4641 313.598 11.0579 311C10.7275 308.887 12.921 307.564 14.0192 307.145C14.443 307.044 14.6679 307 14.5579 307Z" fill="#282861"/>
<path d="M3.58118 304.116C8.3988 305.078 10.8732 305.566 15 306.531C15 306.531 8.31319 307.432 3.58118 307.963C-1.15083 308.494 -1.23644 303.155 3.58118 304.116Z" fill="#282861"/>
<path d="M14.5579 342.14C14.4648 342.14 14.2707 342.091 14.0192 341.995C12.5163 341.637 8.51103 340.556 8.05795 338.14C7.4771 335.042 11.4641 335.542 11.0579 338.14C10.7275 340.253 12.921 341.576 14.0192 341.995C14.443 342.096 14.6679 342.14 14.5579 342.14Z" fill="#282861"/>
<path d="M14.5579 343C14.4648 343 14.2707 343.049 14.0192 343.145C12.5163 343.503 8.51103 344.584 8.05795 347C7.4771 350.098 11.4641 349.598 11.0579 347C10.7275 344.887 12.921 343.564 14.0192 343.145C14.443 343.044 14.6679 343 14.5579 343Z" fill="#282861"/>
<path d="M3.58118 340.116C8.3988 341.078 10.8732 341.566 15 342.531C15 342.531 8.31319 343.432 3.58118 343.963C-1.15083 344.494 -1.23644 339.155 3.58118 340.116Z" fill="#282861"/>
<path d="M14.5579 378.14C14.4648 378.14 14.2707 378.091 14.0192 377.995C12.5163 377.637 8.51103 376.556 8.05795 374.14C7.4771 371.042 11.4641 371.542 11.0579 374.14C10.7275 376.253 12.921 377.576 14.0192 377.995C14.443 378.096 14.6679 378.14 14.5579 378.14Z" fill="#282861"/>
<path d="M14.5579 379C14.4648 379 14.2707 379.049 14.0192 379.145C12.5163 379.503 8.51103 380.584 8.05795 383C7.4771 386.098 11.4641 385.598 11.0579 383C10.7275 380.887 12.921 379.564 14.0192 379.145C14.443 379.044 14.6679 379 14.5579 379Z" fill="#282861"/>
<path d="M3.58118 376.116C8.3988 377.078 10.8732 377.566 15 378.531C15 378.531 8.31319 379.432 3.58118 379.963C-1.15083 380.494 -1.23644 375.155 3.58118 376.116Z" fill="#282861"/>
<path fill-rule="evenodd" clip-rule="evenodd" d="M2 0H43V420H14.151L17.1016 417.111C18.2222 416.014 18.7826 415.465 18.878 414.792C18.9031 414.615 18.9043 414.435 18.8815 414.257C18.795 413.583 18.242 413.027 17.1359 411.915L2 396.697V395.898L17.1016 381.111C18.2222 380.014 18.7826 379.465 18.878 378.792C18.9031 378.615 18.9043 378.435 18.8815 378.257C18.795 377.583 18.242 377.027 17.1359 375.915L2 360.697V359.898L17.1016 345.111C18.2222 344.014 18.7826 343.465 18.878 342.792C18.9031 342.615 18.9043 342.435 18.8815 342.257C18.795 341.583 18.242 341.027 17.1359 339.915L2 324.697V323.898L17.1016 309.111C18.2222 308.014 18.7826 307.465 18.878 306.792C18.9031 306.615 18.9043 306.435 18.8815 306.257C18.795 305.583 18.242 305.027 17.1359 303.915L2 288.697V287.898L17.1016 273.111C18.2222 272.014 18.7826 271.465 18.878 270.792C18.9031 270.615 18.9043 270.435 18.8815 270.257C18.795 269.583 18.242 269.027 17.1359 267.915L2 252.697V251.898L17.1016 237.111L17.1017 237.111C18.2223 236.014 18.7826 235.465 18.878 234.792C18.9031 234.615 18.9043 234.435 18.8815 234.257C18.795 233.583 18.242 233.027 17.1359 231.915L2 216.697V215.898L17.1016 201.111L17.1017 201.111C18.2223 200.014 18.7826 199.465 18.878 198.792C18.9031 198.615 18.9043 198.435 18.8815 198.257C18.795 197.583 18.242 197.027 17.1359 195.915L2 180.697V179.898L17.1016 165.111L17.1017 165.111C18.2223 164.014 18.7826 163.465 18.878 162.792C18.9031 162.615 18.9043 162.435 18.8815 162.257C18.795 161.583 18.242 161.027 17.1359 159.915L2 144.697V143.898L17.1016 129.111C18.2222 128.014 18.7826 127.465 18.878 126.792C18.9031 126.615 18.9043 126.435 18.8815 126.257C18.795 125.583 18.242 125.027 17.1359 123.915L2 108.697V107.898L17.1016 93.1109C18.2222 92.0136 18.7826 91.4649 18.878 90.792C18.9031 90.6146 18.9043 90.4346 18.8815 90.2569C18.795 89.5828 18.242 89.0268 17.1359 87.9147L2 72.6969V71.8977L17.1016 57.1109C18.2222 56.0136 18.7826 55.4649 18.878 54.792C18.9031 54.6146 18.9043 54.4346 18.8815 54.2569C18.795 53.5828 18.242 53.0268 17.1359 51.9147L2 36.6969V35.8977L17.1016 21.1109C18.2222 20.0136 18.7826 19.4649 18.878 18.792C18.9031 18.6146 18.9043 18.4346 18.8815 18.2569C18.795 17.5828 18.242 17.0268 17.1359 15.9148L17.1359 15.9147L2 0.696879V0Z" fill="#282861"/>
<path d="M14.5579 414.14C14.4648 414.14 14.2707 414.091 14.0192 413.995C12.5163 413.637 8.51103 412.556 8.05795 410.14C7.4771 407.042 11.4641 407.542 11.0579 410.14C10.7275 412.253 12.921 413.576 14.0192 413.995C14.443 414.096 14.6679 414.14 14.5579 414.14Z" fill="#282861"/>
<path d="M14.5579 415C14.4648 415 14.2707 415.049 14.0192 415.145C12.5163 415.503 8.51103 416.584 8.05795 419C7.4771 422.098 11.4641 421.598 11.0579 419C10.7275 416.887 12.921 415.564 14.0192 415.145C14.443 415.044 14.6679 415 14.5579 415Z" fill="#282861"/>
<path d="M3.58118 412.116C8.3988 413.078 10.8732 413.566 15 414.531C15 414.531 8.31319 415.432 3.58118 415.963C-1.15083 416.494 -1.23644 411.155 3.58118 412.116Z" fill="#282861"/>
<path d="M14.5579 414.14C14.4648 414.14 14.2707 414.091 14.0192 413.995C12.5163 413.637 8.51103 412.556 8.05795 410.14C7.4771 407.042 11.4641 407.542 11.0579 410.14C10.7275 412.253 12.921 413.576 14.0192 413.995C14.443 414.096 14.6679 414.14 14.5579 414.14Z" fill="#282861"/>
<path d="M14.5579 415C14.4648 415 14.2707 415.049 14.0192 415.145C12.5163 415.503 8.51103 416.584 8.05795 419C7.4771 422.098 11.4641 421.598 11.0579 419C10.7275 416.887 12.921 415.564 14.0192 415.145C14.443 415.044 14.6679 415 14.5579 415Z" fill="#282861"/>
<path d="M3.58118 412.116C8.3988 413.078 10.8732 413.566 15 414.531C15 414.531 8.31319 415.432 3.58118 415.963C-1.15083 416.494 -1.23644 411.155 3.58118 412.116Z" fill="#282861"/>
<path d="M14.5579 450.14C14.4648 450.14 14.2707 450.091 14.0192 449.995C12.5163 449.637 8.51103 448.556 8.05795 446.14C7.4771 443.042 11.4641 443.542 11.0579 446.14C10.7275 448.253 12.921 449.576 14.0192 449.995C14.443 450.096 14.6679 450.14 14.5579 450.14Z" fill="#282861"/>
<path d="M14.5579 451C14.4648 451 14.2707 451.049 14.0192 451.145C12.5163 451.503 8.51103 452.584 8.05795 455C7.4771 458.098 11.4641 457.598 11.0579 455C10.7275 452.887 12.921 451.564 14.0192 451.145C14.443 451.044 14.6679 451 14.5579 451Z" fill="#282861"/>
<path d="M3.58118 448.116C8.3988 449.078 10.8732 449.566 15 450.531C15 450.531 8.31319 451.432 3.58118 451.963C-1.15083 452.494 -1.23644 447.155 3.58118 448.116Z" fill="#282861"/>
<path d="M14.5579 450.14C14.4648 450.14 14.2707 450.091 14.0192 449.995C12.5163 449.637 8.51103 448.556 8.05795 446.14C7.4771 443.042 11.4641 443.542 11.0579 446.14C10.7275 448.253 12.921 449.576 14.0192 449.995C14.443 450.096 14.6679 450.14 14.5579 450.14Z" fill="#282861"/>
<path d="M14.5579 451C14.4648 451 14.2707 451.049 14.0192 451.145C12.5163 451.503 8.51103 452.584 8.05795 455C7.4771 458.098 11.4641 457.598 11.0579 455C10.7275 452.887 12.921 451.564 14.0192 451.145C14.443 451.044 14.6679 451 14.5579 451Z" fill="#282861"/>
<path d="M3.58118 448.116C8.3988 449.078 10.8732 449.566 15 450.531C15 450.531 8.31319 451.432 3.58118 451.963C-1.15083 452.494 -1.23644 447.155 3.58118 448.116Z" fill="#282861"/>
<path d="M14.5579 486.14C14.4648 486.14 14.2707 486.091 14.0192 485.995C12.5163 485.637 8.51103 484.556 8.05795 482.14C7.4771 479.042 11.4641 479.542 11.0579 482.14C10.7275 484.253 12.921 485.576 14.0192 485.995C14.443 486.096 14.6679 486.14 14.5579 486.14Z" fill="#282861"/>
<path d="M14.5579 487C14.4648 487 14.2707 487.049 14.0192 487.145C12.5163 487.503 8.51103 488.584 8.05795 491C7.4771 494.098 11.4641 493.598 11.0579 491C10.7275 488.887 12.921 487.564 14.0192 487.145C14.443 487.044 14.6679 487 14.5579 487Z" fill="#282861"/>
<path d="M3.58118 484.116C8.3988 485.078 10.8732 485.566 15 486.531C15 486.531 8.31319 487.432 3.58118 487.963C-1.15083 488.494 -1.23644 483.155 3.58118 484.116Z" fill="#282861"/>
<path d="M14.5579 522.14C14.4648 522.14 14.2707 522.091 14.0192 521.995C12.5163 521.637 8.51103 520.556 8.05795 518.14C7.4771 515.042 11.4641 515.542 11.0579 518.14C10.7275 520.253 12.921 521.576 14.0192 521.995C14.443 522.096 14.6679 522.14 14.5579 522.14Z" fill="#282861"/>
<path d="M14.5579 523C14.4648 523 14.2707 523.049 14.0192 523.145C12.5163 523.503 8.51103 524.584 8.05795 527C7.4771 530.098 11.4641 529.598 11.0579 527C10.7275 524.887 12.921 523.564 14.0192 523.145C14.443 523.044 14.6679 523 14.5579 523Z" fill="#282861"/>
<path d="M3.58118 520.116C8.3988 521.078 10.8732 521.566 15 522.531C15 522.531 8.31319 523.432 3.58118 523.963C-1.15083 524.494 -1.23644 519.155 3.58118 520.116Z" fill="#282861"/>
<path d="M14.5579 558.14C14.4648 558.14 14.2707 558.091 14.0192 557.995C12.5163 557.637 8.51103 556.556 8.05795 554.14C7.4771 551.042 11.4641 551.542 11.0579 554.14C10.7275 556.253 12.921 557.576 14.0192 557.995C14.443 558.096 14.6679 558.14 14.5579 558.14Z" fill="#282861"/>
<path d="M14.5579 559C14.4648 559 14.2707 559.049 14.0192 559.145C12.5163 559.503 8.51103 560.584 8.05795 563C7.4771 566.098 11.4641 565.598 11.0579 563C10.7275 560.887 12.921 559.564 14.0192 559.145C14.443 559.044 14.6679 559 14.5579 559Z" fill="#282861"/>
<path d="M3.58118 556.116C8.3988 557.078 10.8732 557.566 15 558.531C15 558.531 8.31319 559.432 3.58118 559.963C-1.15083 560.494 -1.23644 555.155 3.58118 556.116Z" fill="#282861"/>
<path d="M14.5579 594.14C14.4648 594.14 14.2707 594.091 14.0192 593.995C12.5163 593.637 8.51103 592.556 8.05795 590.14C7.4771 587.042 11.4641 587.542 11.0579 590.14C10.7275 592.253 12.921 593.576 14.0192 593.995C14.443 594.096 14.6679 594.14 14.5579 594.14Z" fill="#282861"/>
<path d="M14.5579 595C14.4648 595 14.2707 595.049 14.0192 595.145C12.5163 595.503 8.51103 596.584 8.05795 599C7.4771 602.098 11.4641 601.598 11.0579 599C10.7275 596.887 12.921 595.564 14.0192 595.145C14.443 595.044 14.6679 595 14.5579 595Z" fill="#282861"/>
<path d="M3.58118 592.116C8.3988 593.078 10.8732 593.566 15 594.531C15 594.531 8.31319 595.432 3.58118 595.963C-1.15083 596.494 -1.23644 591.155 3.58118 592.116Z" fill="#282861"/>
<path d="M14.5579 630.14C14.4648 630.14 14.2707 630.091 14.0192 629.995C12.5163 629.637 8.51103 628.556 8.05795 626.14C7.4771 623.042 11.4641 623.542 11.0579 626.14C10.7275 628.253 12.921 629.576 14.0192 629.995C14.443 630.096 14.6679 630.14 14.5579 630.14Z" fill="#282861"/>
<path d="M14.5579 631C14.4648 631 14.2707 631.049 14.0192 631.145C12.5163 631.503 8.51103 632.584 8.05795 635C7.4771 638.098 11.4641 637.598 11.0579 635C10.7275 632.887 12.921 631.564 14.0192 631.145C14.443 631.044 14.6679 631 14.5579 631Z" fill="#282861"/>
<path d="M3.58118 628.116C8.3988 629.078 10.8732 629.566 15 630.531C15 630.531 8.31319 631.432 3.58118 631.963C-1.15083 632.494 -1.23644 627.155 3.58118 628.116Z" fill="#282861"/>
<path d="M14.5579 666.14C14.4648 666.14 14.2707 666.091 14.0192 665.995C12.5163 665.637 8.51103 664.556 8.05795 662.14C7.4771 659.042 11.4641 659.542 11.0579 662.14C10.7275 664.253 12.921 665.576 14.0192 665.995C14.443 666.096 14.6679 666.14 14.5579 666.14Z" fill="#282861"/>
<path d="M14.5579 667C14.4648 667 14.2707 667.049 14.0192 667.145C12.5163 667.503 8.51103 668.584 8.05795 671C7.4771 674.098 11.4641 673.598 11.0579 671C10.7275 668.887 12.921 667.564 14.0192 667.145C14.443 667.044 14.6679 667 14.5579 667Z" fill="#282861"/>
<path d="M3.58118 664.116C8.3988 665.078 10.8732 665.566 15 666.531C15 666.531 8.31319 667.432 3.58118 667.963C-1.15083 668.494 -1.23644 663.155 3.58118 664.116Z" fill="#282861"/>
<path d="M14.5579 702.14C14.4648 702.14 14.2707 702.091 14.0192 701.995C12.5163 701.637 8.51103 700.556 8.05795 698.14C7.4771 695.042 11.4641 695.542 11.0579 698.14C10.7275 700.253 12.921 701.576 14.0192 701.995C14.443 702.096 14.6679 702.14 14.5579 702.14Z" fill="#282861"/>
<path d="M14.5579 703C14.4648 703 14.2707 703.049 14.0192 703.145C12.5163 703.503 8.51103 704.584 8.05795 707C7.4771 710.098 11.4641 709.598 11.0579 707C10.7275 704.887 12.921 703.564 14.0192 703.145C14.443 703.044 14.6679 703 14.5579 703Z" fill="#282861"/>
<path d="M3.58118 700.116C8.3988 701.078 10.8732 701.566 15 702.531C15 702.531 8.31319 703.432 3.58118 703.963C-1.15083 704.494 -1.23644 699.155 3.58118 700.116Z" fill="#282861"/>
<path d="M14.5579 738.14C14.4648 738.14 14.2707 738.091 14.0192 737.995C12.5163 737.637 8.51103 736.556 8.05795 734.14C7.4771 731.042 11.4641 731.542 11.0579 734.14C10.7275 736.253 12.921 737.576 14.0192 737.995C14.443 738.096 14.6679 738.14 14.5579 738.14Z" fill="#282861"/>
<path d="M14.5579 739C14.4648 739 14.2707 739.049 14.0192 739.145C12.5163 739.503 8.51103 740.584 8.05795 743C7.4771 746.098 11.4641 745.598 11.0579 743C10.7275 740.887 12.921 739.564 14.0192 739.145C14.443 739.044 14.6679 739 14.5579 739Z" fill="#282861"/>
<path d="M3.58118 736.116C8.3988 737.078 10.8732 737.566 15 738.531C15 738.531 8.31319 739.432 3.58118 739.963C-1.15083 740.494 -1.23644 735.155 3.58118 736.116Z" fill="#282861"/>
<path d="M14.5579 774.14C14.4648 774.14 14.2707 774.091 14.0192 773.995C12.5163 773.637 8.51103 772.556 8.05795 770.14C7.4771 767.042 11.4641 767.542 11.0579 770.14C10.7275 772.253 12.921 773.576 14.0192 773.995C14.443 774.096 14.6679 774.14 14.5579 774.14Z" fill="#282861"/>
<path d="M14.5579 775C14.4648 775 14.2707 775.049 14.0192 775.145C12.5163 775.503 8.51103 776.584 8.05795 779C7.4771 782.098 11.4641 781.598 11.0579 779C10.7275 776.887 12.921 775.564 14.0192 775.145C14.443 775.044 14.6679 775 14.5579 775Z" fill="#282861"/>
<path d="M3.58118 772.116C8.3988 773.078 10.8732 773.566 15 774.531C15 774.531 8.31319 775.432 3.58118 775.963C-1.15083 776.494 -1.23644 771.155 3.58118 772.116Z" fill="#282861"/>
<path fill-rule="evenodd" clip-rule="evenodd" d="M2 396H43V816H14.151L17.1016 813.111C18.2222 812.014 18.7826 811.465 18.878 810.792C18.9031 810.615 18.9043 810.435 18.8815 810.257C18.795 809.583 18.242 809.027 17.1359 807.915L2 792.697V791.898L17.1016 777.111C18.2222 776.014 18.7826 775.465 18.878 774.792C18.9031 774.615 18.9043 774.435 18.8815 774.257C18.795 773.583 18.242 773.027 17.1359 771.915L2 756.697V755.898L17.1016 741.111C18.2222 740.014 18.7826 739.465 18.878 738.792C18.9031 738.615 18.9043 738.435 18.8815 738.257C18.795 737.583 18.242 737.027 17.1359 735.915L2 720.697V719.898L17.1016 705.111C18.2222 704.014 18.7826 703.465 18.878 702.792C18.9031 702.615 18.9043 702.435 18.8815 702.257C18.795 701.583 18.242 701.027 17.1359 699.915L2 684.697V683.898L17.1016 669.111C18.2222 668.014 18.7826 667.465 18.878 666.792C18.9031 666.615 18.9043 666.435 18.8815 666.257C18.795 665.583 18.242 665.027 17.1359 663.915L2 648.697V647.898L17.1016 633.111L17.1017 633.111C18.2223 632.014 18.7826 631.465 18.878 630.792C18.9031 630.615 18.9043 630.435 18.8815 630.257C18.795 629.583 18.242 629.027 17.1359 627.915L2 612.697V611.898L17.1016 597.111L17.1017 597.111C18.2223 596.014 18.7826 595.465 18.878 594.792C18.9031 594.615 18.9043 594.435 18.8815 594.257C18.795 593.583 18.242 593.027 17.1359 591.915L2 576.697V575.898L17.1016 561.111L17.1017 561.111C18.2223 560.014 18.7826 559.465 18.878 558.792C18.9031 558.615 18.9043 558.435 18.8815 558.257C18.795 557.583 18.242 557.027 17.1359 555.915L2 540.697V539.898L17.1016 525.111C18.2222 524.014 18.7826 523.465 18.878 522.792C18.9031 522.615 18.9043 522.435 18.8815 522.257C18.795 521.583 18.242 521.027 17.1359 519.915L2 504.697V503.898L17.1016 489.111C18.2222 488.014 18.7826 487.465 18.878 486.792C18.9031 486.615 18.9043 486.435 18.8815 486.257C18.795 485.583 18.242 485.027 17.1359 483.915L2 468.697V467.898L17.1016 453.111C18.2222 452.014 18.7826 451.465 18.878 450.792C18.9031 450.615 18.9043 450.435 18.8815 450.257C18.795 449.583 18.242 449.027 17.1359 447.915L2 432.697V431.898L17.1016 417.111C18.2222 416.014 18.7826 415.465 18.878 414.792C18.9031 414.615 18.9043 414.435 18.8815 414.257C18.795 413.583 18.242 413.027 17.1359 411.915L17.1359 411.915L2 396.697V396Z" fill="#282861"/>
<path d="M14.5579 810.14C14.4648 810.14 14.2707 810.091 14.0192 809.995C12.5163 809.637 8.51103 808.556 8.05795 806.14C7.4771 803.042 11.4641 803.542 11.0579 806.14C10.7275 808.253 12.921 809.576 14.0192 809.995C14.443 810.096 14.6679 810.14 14.5579 810.14Z" fill="#282861"/>
<path d="M14.5579 811C14.4648 811 14.2707 811.049 14.0192 811.145C12.5163 811.503 8.51103 812.584 8.05795 815C7.4771 818.098 11.4641 817.598 11.0579 815C10.7275 812.887 12.921 811.564 14.0192 811.145C14.443 811.044 14.6679 811 14.5579 811Z" fill="#282861"/>
<path d="M3.58118 808.116C8.3988 809.078 10.8732 809.566 15 810.531C15 810.531 8.31319 811.432 3.58118 811.963C-1.15083 812.494 -1.23644 807.155 3.58118 808.116Z" fill="#282861"/>
<path d="M14.5579 810.14C14.4648 810.14 14.2707 810.091 14.0192 809.995C12.5163 809.637 8.51103 808.556 8.05795 806.14C7.4771 803.042 11.4641 803.542 11.0579 806.14C10.7275 808.253 12.921 809.576 14.0192 809.995C14.443 810.096 14.6679 810.14 14.5579 810.14Z" fill="#282861"/>
<path d="M14.5579 811C14.4648 811 14.2707 811.049 14.0192 811.145C12.5163 811.503 8.51103 812.584 8.05795 815C7.4771 818.098 11.4641 817.598 11.0579 815C10.7275 812.887 12.921 811.564 14.0192 811.145C14.443 811.044 14.6679 811 14.5579 811Z" fill="#282861"/>
<path d="M3.58118 808.116C8.3988 809.078 10.8732 809.566 15 810.531C15 810.531 8.31319 811.432 3.58118 811.963C-1.15083 812.494 -1.23644 807.155 3.58118 808.116Z" fill="#282861"/>
<path d="M14.5579 846.14C14.4648 846.14 14.2707 846.091 14.0192 845.995C12.5163 845.637 8.51103 844.556 8.05795 842.14C7.4771 839.042 11.4641 839.542 11.0579 842.14C10.7275 844.253 12.921 845.576 14.0192 845.995C14.443 846.096 14.6679 846.14 14.5579 846.14Z" fill="#282861"/>
<path d="M14.5579 847C14.4648 847 14.2707 847.049 14.0192 847.145C12.5163 847.503 8.51103 848.584 8.05795 851C7.4771 854.098 11.4641 853.598 11.0579 851C10.7275 848.887 12.921 847.564 14.0192 847.145C14.443 847.044 14.6679 847 14.5579 847Z" fill="#282861"/>
<path d="M3.58118 844.116C8.3988 845.078 10.8732 845.566 15 846.531C15 846.531 8.31319 847.432 3.58118 847.963C-1.15083 848.494 -1.23644 843.155 3.58118 844.116Z" fill="#282861"/>
<path d="M14.5579 846.14C14.4648 846.14 14.2707 846.091 14.0192 845.995C12.5163 845.637 8.51103 844.556 8.05795 842.14C7.4771 839.042 11.4641 839.542 11.0579 842.14C10.7275 844.253 12.921 845.576 14.0192 845.995C14.443 846.096 14.6679 846.14 14.5579 846.14Z" fill="#282861"/>
<path d="M14.5579 847C14.4648 847 14.2707 847.049 14.0192 847.145C12.5163 847.503 8.51103 848.584 8.05795 851C7.4771 854.098 11.4641 853.598 11.0579 851C10.7275 848.887 12.921 847.564 14.0192 847.145C14.443 847.044 14.6679 847 14.5579 847Z" fill="#282861"/>
<path d="M3.58118 844.116C8.3988 845.078 10.8732 845.566 15 846.531C15 846.531 8.31319 847.432 3.58118 847.963C-1.15083 848.494 -1.23644 843.155 3.58118 844.116Z" fill="#282861"/>
<path d="M14.5579 882.14C14.4648 882.14 14.2707 882.091 14.0192 881.995C12.5163 881.637 8.51103 880.556 8.05795 878.14C7.4771 875.042 11.4641 875.542 11.0579 878.14C10.7275 880.253 12.921 881.576 14.0192 881.995C14.443 882.096 14.6679 882.14 14.5579 882.14Z" fill="#282861"/>
<path d="M14.5579 883C14.4648 883 14.2707 883.049 14.0192 883.145C12.5163 883.503 8.51103 884.584 8.05795 887C7.4771 890.098 11.4641 889.598 11.0579 887C10.7275 884.887 12.921 883.564 14.0192 883.145C14.443 883.044 14.6679 883 14.5579 883Z" fill="#282861"/>
<path d="M3.58118 880.116C8.3988 881.078 10.8732 881.566 15 882.531C15 882.531 8.31319 883.432 3.58118 883.963C-1.15083 884.494 -1.23644 879.155 3.58118 880.116Z" fill="#282861"/>
<path d="M14.5579 918.14C14.4648 918.14 14.2707 918.091 14.0192 917.995C12.5163 917.637 8.51103 916.556 8.05795 914.14C7.4771 911.042 11.4641 911.542 11.0579 914.14C10.7275 916.253 12.921 917.576 14.0192 917.995C14.443 918.096 14.6679 918.14 14.5579 918.14Z" fill="#282861"/>
<path d="M14.5579 919C14.4648 919 14.2707 919.049 14.0192 919.145C12.5163 919.503 8.51103 920.584 8.05795 923C7.4771 926.098 11.4641 925.598 11.0579 923C10.7275 920.887 12.921 919.564 14.0192 919.145C14.443 919.044 14.6679 919 14.5579 919Z" fill="#282861"/>
<path d="M3.58118 916.116C8.3988 917.078 10.8732 917.566 15 918.531C15 918.531 8.31319 919.432 3.58118 919.963C-1.15083 920.494 -1.23644 915.155 3.58118 916.116Z" fill="#282861"/>
<path d="M14.5579 954.14C14.4648 954.14 14.2707 954.091 14.0192 953.995C12.5163 953.637 8.51103 952.556 8.05795 950.14C7.4771 947.042 11.4641 947.542 11.0579 950.14C10.7275 952.253 12.921 953.576 14.0192 953.995C14.443 954.096 14.6679 954.14 14.5579 954.14Z" fill="#282861"/>
<path d="M14.5579 955C14.4648 955 14.2707 955.049 14.0192 955.145C12.5163 955.503 8.51103 956.584 8.05795 959C7.4771 962.098 11.4641 961.598 11.0579 959C10.7275 956.887 12.921 955.564 14.0192 955.145C14.443 955.044 14.6679 955 14.5579 955Z" fill="#282861"/>
<path d="M3.58118 952.116C8.3988 953.078 10.8732 953.566 15 954.531C15 954.531 8.31319 955.432 3.58118 955.963C-1.15083 956.494 -1.23644 951.155 3.58118 952.116Z" fill="#282861"/>
<path d="M14.5579 990.14C14.4648 990.14 14.2707 990.091 14.0192 989.995C12.5163 989.637 8.51103 988.556 8.05795 986.14C7.4771 983.042 11.4641 983.542 11.0579 986.14C10.7275 988.253 12.921 989.576 14.0192 989.995C14.443 990.096 14.6679 990.14 14.5579 990.14Z" fill="#282861"/>
<path d="M14.5579 991C14.4648 991 14.2707 991.049 14.0192 991.145C12.5163 991.503 8.51103 992.584 8.05795 995C7.4771 998.098 11.4641 997.598 11.0579 995C10.7275 992.887 12.921 991.564 14.0192 991.145C14.443 991.044 14.6679 991 14.5579 991Z" fill="#282861"/>
<path d="M3.58118 988.116C8.3988 989.078 10.8732 989.566 15 990.531C15 990.531 8.31319 991.432 3.58118 991.963C-1.15083 992.494 -1.23644 987.155 3.58118 988.116Z" fill="#282861"/>
<path d="M14.5579 1026.14C14.4648 1026.14 14.2707 1026.09 14.0192 1026C12.5163 1025.64 8.51103 1024.56 8.05795 1022.14C7.4771 1019.04 11.4641 1019.54 11.0579 1022.14C10.7275 1024.25 12.921 1025.58 14.0192 1026C14.443 1026.1 14.6679 1026.14 14.5579 1026.14Z" fill="#282861"/>
<path d="M14.5579 1027C14.4648 1027 14.2707 1027.05 14.0192 1027.14C12.5163 1027.5 8.51103 1028.58 8.05795 1031C7.4771 1034.1 11.4641 1033.6 11.0579 1031C10.7275 1028.89 12.921 1027.56 14.0192 1027.14C14.443 1027.04 14.6679 1027 14.5579 1027Z" fill="#282861"/>
<path d="M3.58118 1024.12C8.3988 1025.08 10.8732 1025.57 15 1026.53C15 1026.53 8.31319 1027.43 3.58118 1027.96C-1.15083 1028.49 -1.23644 1023.15 3.58118 1024.12Z" fill="#282861"/>
<path d="M14.5579 1062.14C14.4648 1062.14 14.2707 1062.09 14.0192 1062C12.5163 1061.64 8.51103 1060.56 8.05795 1058.14C7.4771 1055.04 11.4641 1055.54 11.0579 1058.14C10.7275 1060.25 12.921 1061.58 14.0192 1062C14.443 1062.1 14.6679 1062.14 14.5579 1062.14Z" fill="#282861"/>
<path d="M14.5579 1063C14.4648 1063 14.2707 1063.05 14.0192 1063.14C12.5163 1063.5 8.51103 1064.58 8.05795 1067C7.4771 1070.1 11.4641 1069.6 11.0579 1067C10.7275 1064.89 12.921 1063.56 14.0192 1063.14C14.443 1063.04 14.6679 1063 14.5579 1063Z" fill="#282861"/>
<path d="M3.58118 1060.12C8.3988 1061.08 10.8732 1061.57 15 1062.53C15 1062.53 8.31319 1063.43 3.58118 1063.96C-1.15083 1064.49 -1.23644 1059.15 3.58118 1060.12Z" fill="#282861"/>
<path d="M14.5579 1098.14C14.4648 1098.14 14.2707 1098.09 14.0192 1098C12.5163 1097.64 8.51103 1096.56 8.05795 1094.14C7.4771 1091.04 11.4641 1091.54 11.0579 1094.14C10.7275 1096.25 12.921 1097.58 14.0192 1098C14.443 1098.1 14.6679 1098.14 14.5579 1098.14Z" fill="#282861"/>
<path d="M14.5579 1099C14.4648 1099 14.2707 1099.05 14.0192 1099.14C12.5163 1099.5 8.51103 1100.58 8.05795 1103C7.4771 1106.1 11.4641 1105.6 11.0579 1103C10.7275 1100.89 12.921 1099.56 14.0192 1099.14C14.443 1099.04 14.6679 1099 14.5579 1099Z" fill="#282861"/>
<path d="M3.58118 1096.12C8.3988 1097.08 10.8732 1097.57 15 1098.53C15 1098.53 8.31319 1099.43 3.58118 1099.96C-1.15083 1100.49 -1.23644 1095.15 3.58118 1096.12Z" fill="#282861"/>
<path d="M14.5579 1134.14C14.4648 1134.14 14.2707 1134.09 14.0192 1134C12.5163 1133.64 8.51103 1132.56 8.05795 1130.14C7.4771 1127.04 11.4641 1127.54 11.0579 1130.14C10.7275 1132.25 12.921 1133.58 14.0192 1134C14.443 1134.1 14.6679 1134.14 14.5579 1134.14Z" fill="#282861"/>
<path d="M14.5579 1135C14.4648 1135 14.2707 1135.05 14.0192 1135.14C12.5163 1135.5 8.51103 1136.58 8.05795 1139C7.4771 1142.1 11.4641 1141.6 11.0579 1139C10.7275 1136.89 12.921 1135.56 14.0192 1135.14C14.443 1135.04 14.6679 1135 14.5579 1135Z" fill="#282861"/>
<path d="M3.58118 1132.12C8.3988 1133.08 10.8732 1133.57 15 1134.53C15 1134.53 8.31319 1135.43 3.58118 1135.96C-1.15083 1136.49 -1.23644 1131.15 3.58118 1132.12Z" fill="#282861"/>
<path d="M14.5579 1170.14C14.4648 1170.14 14.2707 1170.09 14.0192 1170C12.5163 1169.64 8.51103 1168.56 8.05795 1166.14C7.4771 1163.04 11.4641 1163.54 11.0579 1166.14C10.7275 1168.25 12.921 1169.58 14.0192 1170C14.443 1170.1 14.6679 1170.14 14.5579 1170.14Z" fill="#282861"/>
<path d="M14.5579 1171C14.4648 1171 14.2707 1171.05 14.0192 1171.14C12.5163 1171.5 8.51103 1172.58 8.05795 1175C7.4771 1178.1 11.4641 1177.6 11.0579 1175C10.7275 1172.89 12.921 1171.56 14.0192 1171.14C14.443 1171.04 14.6679 1171 14.5579 1171Z" fill="#282861"/>
<path d="M3.58118 1168.12C8.3988 1169.08 10.8732 1169.57 15 1170.53C15 1170.53 8.31319 1171.43 3.58118 1171.96C-1.15083 1172.49 -1.23644 1167.15 3.58118 1168.12Z" fill="#282861"/>
<path fill-rule="evenodd" clip-rule="evenodd" d="M2 792H43V1212H14.151L17.1016 1209.11C18.2222 1208.01 18.7826 1207.46 18.878 1206.79C18.9031 1206.61 18.9043 1206.43 18.8815 1206.26C18.795 1205.58 18.242 1205.03 17.1359 1203.91L2 1188.7V1187.9L17.1016 1173.11C18.2222 1172.01 18.7826 1171.46 18.878 1170.79C18.9031 1170.61 18.9043 1170.43 18.8815 1170.26C18.795 1169.58 18.242 1169.03 17.1359 1167.91L2 1152.7V1151.9L17.1016 1137.11C18.2222 1136.01 18.7826 1135.46 18.878 1134.79C18.9031 1134.61 18.9043 1134.43 18.8815 1134.26C18.795 1133.58 18.242 1133.03 17.1359 1131.91L2 1116.7V1115.9L17.1016 1101.11C18.2222 1100.01 18.7826 1099.46 18.878 1098.79C18.9031 1098.61 18.9043 1098.43 18.8815 1098.26C18.795 1097.58 18.242 1097.03 17.1359 1095.91L2 1080.7V1079.9L17.1016 1065.11C18.2222 1064.01 18.7826 1063.46 18.878 1062.79C18.9031 1062.61 18.9043 1062.43 18.8815 1062.26C18.795 1061.58 18.242 1061.03 17.1359 1059.91L2 1044.7V1043.9L17.1016 1029.11L17.1017 1029.11C18.2223 1028.01 18.7826 1027.46 18.878 1026.79C18.9031 1026.61 18.9043 1026.43 18.8815 1026.26C18.795 1025.58 18.242 1025.03 17.1359 1023.91L2 1008.7V1007.9L17.1016 993.111L17.1017 993.111C18.2223 992.014 18.7826 991.465 18.878 990.792C18.9031 990.615 18.9043 990.435 18.8815 990.257C18.795 989.583 18.242 989.027 17.1359 987.915L2 972.697V971.898L17.1016 957.111L17.1017 957.111C18.2223 956.014 18.7826 955.465 18.878 954.792C18.9031 954.615 18.9043 954.435 18.8815 954.257C18.795 953.583 18.242 953.027 17.1359 951.915L2 936.697V935.898L17.1016 921.111C18.2222 920.014 18.7826 919.465 18.878 918.792C18.9031 918.615 18.9043 918.435 18.8815 918.257C18.795 917.583 18.242 917.027 17.1359 915.915L2 900.697V899.898L17.1016 885.111C18.2222 884.014 18.7826 883.465 18.878 882.792C18.9031 882.615 18.9043 882.435 18.8815 882.257C18.795 881.583 18.242 881.027 17.1359 879.915L2 864.697V863.898L17.1016 849.111C18.2222 848.014 18.7826 847.465 18.878 846.792C18.9031 846.615 18.9043 846.435 18.8815 846.257C18.795 845.583 18.242 845.027 17.1359 843.915L2 828.697V827.898L17.1016 813.111C18.2222 812.014 18.7826 811.465 18.878 810.792C18.9031 810.615 18.9043 810.435 18.8815 810.257C18.795 809.583 18.242 809.027 17.1359 807.915L17.1359 807.915L2 792.697V792Z" fill="#282861"/>
<path d="M14.5579 1206.14C14.4648 1206.14 14.2707 1206.09 14.0192 1206C12.5163 1205.64 8.51103 1204.56 8.05795 1202.14C7.4771 1199.04 11.4641 1199.54 11.0579 1202.14C10.7275 1204.25 12.921 1205.58 14.0192 1206C14.443 1206.1 14.6679 1206.14 14.5579 1206.14Z" fill="#282861"/>
<path d="M14.5579 1207C14.4648 1207 14.2707 1207.05 14.0192 1207.14C12.5163 1207.5 8.51103 1208.58 8.05795 1211C7.4771 1214.1 11.4641 1213.6 11.0579 1211C10.7275 1208.89 12.921 1207.56 14.0192 1207.14C14.443 1207.04 14.6679 1207 14.5579 1207Z" fill="#282861"/>
<path d="M3.58118 1204.12C8.3988 1205.08 10.8732 1205.57 15 1206.53C15 1206.53 8.31319 1207.43 3.58118 1207.96C-1.15083 1208.49 -1.23644 1203.15 3.58118 1204.12Z" fill="#282861"/>
<path d="M14.5579 1206.14C14.4648 1206.14 14.2707 1206.09 14.0192 1206C12.5163 1205.64 8.51103 1204.56 8.05795 1202.14C7.4771 1199.04 11.4641 1199.54 11.0579 1202.14C10.7275 1204.25 12.921 1205.58 14.0192 1206C14.443 1206.1 14.6679 1206.14 14.5579 1206.14Z" fill="#282861"/>
<path d="M14.5579 1207C14.4648 1207 14.2707 1207.05 14.0192 1207.14C12.5163 1207.5 8.51103 1208.58 8.05795 1211C7.4771 1214.1 11.4641 1213.6 11.0579 1211C10.7275 1208.89 12.921 1207.56 14.0192 1207.14C14.443 1207.04 14.6679 1207 14.5579 1207Z" fill="#282861"/>
<path d="M3.58118 1204.12C8.3988 1205.08 10.8732 1205.57 15 1206.53C15 1206.53 8.31319 1207.43 3.58118 1207.96C-1.15083 1208.49 -1.23644 1203.15 3.58118 1204.12Z" fill="#282861"/>
<path d="M14.5579 1242.14C14.4648 1242.14 14.2707 1242.09 14.0192 1242C12.5163 1241.64 8.51103 1240.56 8.05795 1238.14C7.4771 1235.04 11.4641 1235.54 11.0579 1238.14C10.7275 1240.25 12.921 1241.58 14.0192 1242C14.443 1242.1 14.6679 1242.14 14.5579 1242.14Z" fill="#282861"/>
<path d="M14.5579 1243C14.4648 1243 14.2707 1243.05 14.0192 1243.14C12.5163 1243.5 8.51103 1244.58 8.05795 1247C7.4771 1250.1 11.4641 1249.6 11.0579 1247C10.7275 1244.89 12.921 1243.56 14.0192 1243.14C14.443 1243.04 14.6679 1243 14.5579 1243Z" fill="#282861"/>
<path d="M3.58118 1240.12C8.3988 1241.08 10.8732 1241.57 15 1242.53C15 1242.53 8.31319 1243.43 3.58118 1243.96C-1.15083 1244.49 -1.23644 1239.15 3.58118 1240.12Z" fill="#282861"/>
<path d="M14.5579 1242.14C14.4648 1242.14 14.2707 1242.09 14.0192 1242C12.5163 1241.64 8.51103 1240.56 8.05795 1238.14C7.4771 1235.04 11.4641 1235.54 11.0579 1238.14C10.7275 1240.25 12.921 1241.58 14.0192 1242C14.443 1242.1 14.6679 1242.14 14.5579 1242.14Z" fill="#282861"/>
<path d="M14.5579 1243C14.4648 1243 14.2707 1243.05 14.0192 1243.14C12.5163 1243.5 8.51103 1244.58 8.05795 1247C7.4771 1250.1 11.4641 1249.6 11.0579 1247C10.7275 1244.89 12.921 1243.56 14.0192 1243.14C14.443 1243.04 14.6679 1243 14.5579 1243Z" fill="#282861"/>
<path d="M3.58118 1240.12C8.3988 1241.08 10.8732 1241.57 15 1242.53C15 1242.53 8.31319 1243.43 3.58118 1243.96C-1.15083 1244.49 -1.23644 1239.15 3.58118 1240.12Z" fill="#282861"/>
<path d="M14.5579 1278.14C14.4648 1278.14 14.2707 1278.09 14.0192 1278C12.5163 1277.64 8.51103 1276.56 8.05795 1274.14C7.4771 1271.04 11.4641 1271.54 11.0579 1274.14C10.7275 1276.25 12.921 1277.58 14.0192 1278C14.443 1278.1 14.6679 1278.14 14.5579 1278.14Z" fill="#282861"/>
<path d="M14.5579 1279C14.4648 1279 14.2707 1279.05 14.0192 1279.14C12.5163 1279.5 8.51103 1280.58 8.05795 1283C7.4771 1286.1 11.4641 1285.6 11.0579 1283C10.7275 1280.89 12.921 1279.56 14.0192 1279.14C14.443 1279.04 14.6679 1279 14.5579 1279Z" fill="#282861"/>
<path d="M3.58118 1276.12C8.3988 1277.08 10.8732 1277.57 15 1278.53C15 1278.53 8.31319 1279.43 3.58118 1279.96C-1.15083 1280.49 -1.23644 1275.15 3.58118 1276.12Z" fill="#282861"/>
<path d="M14.5579 1314.14C14.4648 1314.14 14.2707 1314.09 14.0192 1314C12.5163 1313.64 8.51103 1312.56 8.05795 1310.14C7.4771 1307.04 11.4641 1307.54 11.0579 1310.14C10.7275 1312.25 12.921 1313.58 14.0192 1314C14.443 1314.1 14.6679 1314.14 14.5579 1314.14Z" fill="#282861"/>
<path d="M14.5579 1315C14.4648 1315 14.2707 1315.05 14.0192 1315.14C12.5163 1315.5 8.51103 1316.58 8.05795 1319C7.4771 1322.1 11.4641 1321.6 11.0579 1319C10.7275 1316.89 12.921 1315.56 14.0192 1315.14C14.443 1315.04 14.6679 1315 14.5579 1315Z" fill="#282861"/>
<path d="M3.58118 1312.12C8.3988 1313.08 10.8732 1313.57 15 1314.53C15 1314.53 8.31319 1315.43 3.58118 1315.96C-1.15083 1316.49 -1.23644 1311.15 3.58118 1312.12Z" fill="#282861"/>
<path d="M14.5579 1350.14C14.4648 1350.14 14.2707 1350.09 14.0192 1350C12.5163 1349.64 8.51103 1348.56 8.05795 1346.14C7.4771 1343.04 11.4641 1343.54 11.0579 1346.14C10.7275 1348.25 12.921 1349.58 14.0192 1350C14.443 1350.1 14.6679 1350.14 14.5579 1350.14Z" fill="#282861"/>
<path d="M14.5579 1351C14.4648 1351 14.2707 1351.05 14.0192 1351.14C12.5163 1351.5 8.51103 1352.58 8.05795 1355C7.4771 1358.1 11.4641 1357.6 11.0579 1355C10.7275 1352.89 12.921 1351.56 14.0192 1351.14C14.443 1351.04 14.6679 1351 14.5579 1351Z" fill="#282861"/>
<path d="M3.58118 1348.12C8.3988 1349.08 10.8732 1349.57 15 1350.53C15 1350.53 8.31319 1351.43 3.58118 1351.96C-1.15083 1352.49 -1.23644 1347.15 3.58118 1348.12Z" fill="#282861"/>
<path d="M14.5579 1386.14C14.4648 1386.14 14.2707 1386.09 14.0192 1386C12.5163 1385.64 8.51103 1384.56 8.05795 1382.14C7.4771 1379.04 11.4641 1379.54 11.0579 1382.14C10.7275 1384.25 12.921 1385.58 14.0192 1386C14.443 1386.1 14.6679 1386.14 14.5579 1386.14Z" fill="#282861"/>
<path d="M14.5579 1387C14.4648 1387 14.2707 1387.05 14.0192 1387.14C12.5163 1387.5 8.51103 1388.58 8.05795 1391C7.4771 1394.1 11.4641 1393.6 11.0579 1391C10.7275 1388.89 12.921 1387.56 14.0192 1387.14C14.443 1387.04 14.6679 1387 14.5579 1387Z" fill="#282861"/>
<path d="M3.58118 1384.12C8.3988 1385.08 10.8732 1385.57 15 1386.53C15 1386.53 8.31319 1387.43 3.58118 1387.96C-1.15083 1388.49 -1.23644 1383.15 3.58118 1384.12Z" fill="#282861"/>
<path d="M14.5579 1422.14C14.4648 1422.14 14.2707 1422.09 14.0192 1422C12.5163 1421.64 8.51103 1420.56 8.05795 1418.14C7.4771 1415.04 11.4641 1415.54 11.0579 1418.14C10.7275 1420.25 12.921 1421.58 14.0192 1422C14.443 1422.1 14.6679 1422.14 14.5579 1422.14Z" fill="#282861"/>
<path d="M14.5579 1423C14.4648 1423 14.2707 1423.05 14.0192 1423.14C12.5163 1423.5 8.51103 1424.58 8.05795 1427C7.4771 1430.1 11.4641 1429.6 11.0579 1427C10.7275 1424.89 12.921 1423.56 14.0192 1423.14C14.443 1423.04 14.6679 1423 14.5579 1423Z" fill="#282861"/>
<path d="M3.58118 1420.12C8.3988 1421.08 10.8732 1421.57 15 1422.53C15 1422.53 8.31319 1423.43 3.58118 1423.96C-1.15083 1424.49 -1.23644 1419.15 3.58118 1420.12Z" fill="#282861"/>
<path d="M14.5579 1458.14C14.4648 1458.14 14.2707 1458.09 14.0192 1458C12.5163 1457.64 8.51103 1456.56 8.05795 1454.14C7.4771 1451.04 11.4641 1451.54 11.0579 1454.14C10.7275 1456.25 12.921 1457.58 14.0192 1458C14.443 1458.1 14.6679 1458.14 14.5579 1458.14Z" fill="#282861"/>
<path d="M14.5579 1459C14.4648 1459 14.2707 1459.05 14.0192 1459.14C12.5163 1459.5 8.51103 1460.58 8.05795 1463C7.4771 1466.1 11.4641 1465.6 11.0579 1463C10.7275 1460.89 12.921 1459.56 14.0192 1459.14C14.443 1459.04 14.6679 1459 14.5579 1459Z" fill="#282861"/>
<path d="M3.58118 1456.12C8.3988 1457.08 10.8732 1457.57 15 1458.53C15 1458.53 8.31319 1459.43 3.58118 1459.96C-1.15083 1460.49 -1.23644 1455.15 3.58118 1456.12Z" fill="#282861"/>
<path d="M14.5579 1494.14C14.4648 1494.14 14.2707 1494.09 14.0192 1494C12.5163 1493.64 8.51103 1492.56 8.05795 1490.14C7.4771 1487.04 11.4641 1487.54 11.0579 1490.14C10.7275 1492.25 12.921 1493.58 14.0192 1494C14.443 1494.1 14.6679 1494.14 14.5579 1494.14Z" fill="#282861"/>
<path d="M14.5579 1495C14.4648 1495 14.2707 1495.05 14.0192 1495.14C12.5163 1495.5 8.51103 1496.58 8.05795 1499C7.4771 1502.1 11.4641 1501.6 11.0579 1499C10.7275 1496.89 12.921 1495.56 14.0192 1495.14C14.443 1495.04 14.6679 1495 14.5579 1495Z" fill="#282861"/>
<path d="M3.58118 1492.12C8.3988 1493.08 10.8732 1493.57 15 1494.53C15 1494.53 8.31319 1495.43 3.58118 1495.96C-1.15083 1496.49 -1.23644 1491.15 3.58118 1492.12Z" fill="#282861"/>
<path d="M14.5579 1530.14C14.4648 1530.14 14.2707 1530.09 14.0192 1530C12.5163 1529.64 8.51103 1528.56 8.05795 1526.14C7.4771 1523.04 11.4641 1523.54 11.0579 1526.14C10.7275 1528.25 12.921 1529.58 14.0192 1530C14.443 1530.1 14.6679 1530.14 14.5579 1530.14Z" fill="#282861"/>
<path d="M14.5579 1531C14.4648 1531 14.2707 1531.05 14.0192 1531.14C12.5163 1531.5 8.51103 1532.58 8.05795 1535C7.4771 1538.1 11.4641 1537.6 11.0579 1535C10.7275 1532.89 12.921 1531.56 14.0192 1531.14C14.443 1531.04 14.6679 1531 14.5579 1531Z" fill="#282861"/>
<path d="M3.58118 1528.12C8.3988 1529.08 10.8732 1529.57 15 1530.53C15 1530.53 8.31319 1531.43 3.58118 1531.96C-1.15083 1532.49 -1.23644 1527.15 3.58118 1528.12Z" fill="#282861"/>
<path d="M14.5579 1566.14C14.4648 1566.14 14.2707 1566.09 14.0192 1566C12.5163 1565.64 8.51103 1564.56 8.05795 1562.14C7.4771 1559.04 11.4641 1559.54 11.0579 1562.14C10.7275 1564.25 12.921 1565.58 14.0192 1566C14.443 1566.1 14.6679 1566.14 14.5579 1566.14Z" fill="#282861"/>
<path d="M14.5579 1567C14.4648 1567 14.2707 1567.05 14.0192 1567.14C12.5163 1567.5 8.51103 1568.58 8.05795 1571C7.4771 1574.1 11.4641 1573.6 11.0579 1571C10.7275 1568.89 12.921 1567.56 14.0192 1567.14C14.443 1567.04 14.6679 1567 14.5579 1567Z" fill="#282861"/>
<path d="M3.58118 1564.12C8.3988 1565.08 10.8732 1565.57 15 1566.53C15 1566.53 8.31319 1567.43 3.58118 1567.96C-1.15083 1568.49 -1.23644 1563.15 3.58118 1564.12Z" fill="#282861"/>
<path fill-rule="evenodd" clip-rule="evenodd" d="M2 1188H43V1608H14.151L17.1016 1605.11C18.2222 1604.01 18.7826 1603.46 18.878 1602.79C18.9031 1602.61 18.9043 1602.43 18.8815 1602.26C18.795 1601.58 18.242 1601.03 17.1359 1599.91L2 1584.7V1583.9L17.1016 1569.11C18.2222 1568.01 18.7826 1567.46 18.878 1566.79C18.9031 1566.61 18.9043 1566.43 18.8815 1566.26C18.795 1565.58 18.242 1565.03 17.1359 1563.91L2 1548.7V1547.9L17.1016 1533.11C18.2222 1532.01 18.7826 1531.46 18.878 1530.79C18.9031 1530.61 18.9043 1530.43 18.8815 1530.26C18.795 1529.58 18.242 1529.03 17.1359 1527.91L2 1512.7V1511.9L17.1016 1497.11C18.2222 1496.01 18.7826 1495.46 18.878 1494.79C18.9031 1494.61 18.9043 1494.43 18.8815 1494.26C18.795 1493.58 18.242 1493.03 17.1359 1491.91L2 1476.7V1475.9L17.1016 1461.11C18.2222 1460.01 18.7826 1459.46 18.878 1458.79C18.9031 1458.61 18.9043 1458.43 18.8815 1458.26C18.795 1457.58 18.242 1457.03 17.1359 1455.91L2 1440.7V1439.9L17.1016 1425.11L17.1017 1425.11C18.2223 1424.01 18.7826 1423.46 18.878 1422.79C18.9031 1422.61 18.9043 1422.43 18.8815 1422.26C18.795 1421.58 18.242 1421.03 17.1359 1419.91L2 1404.7V1403.9L17.1016 1389.11L17.1017 1389.11C18.2223 1388.01 18.7826 1387.46 18.878 1386.79C18.9031 1386.61 18.9043 1386.43 18.8815 1386.26C18.795 1385.58 18.242 1385.03 17.1359 1383.91L2 1368.7V1367.9L17.1016 1353.11L17.1017 1353.11C18.2223 1352.01 18.7826 1351.46 18.878 1350.79C18.9031 1350.61 18.9043 1350.43 18.8815 1350.26C18.795 1349.58 18.242 1349.03 17.1359 1347.91L2 1332.7V1331.9L17.1016 1317.11C18.2222 1316.01 18.7826 1315.46 18.878 1314.79C18.9031 1314.61 18.9043 1314.43 18.8815 1314.26C18.795 1313.58 18.242 1313.03 17.1359 1311.91L2 1296.7V1295.9L17.1016 1281.11C18.2222 1280.01 18.7826 1279.46 18.878 1278.79C18.9031 1278.61 18.9043 1278.43 18.8815 1278.26C18.795 1277.58 18.242 1277.03 17.1359 1275.91L2 1260.7V1259.9L17.1016 1245.11C18.2222 1244.01 18.7826 1243.46 18.878 1242.79C18.9031 1242.61 18.9043 1242.43 18.8815 1242.26C18.795 1241.58 18.242 1241.03 17.1359 1239.91L2 1224.7V1223.9L17.1016 1209.11C18.2222 1208.01 18.7826 1207.46 18.878 1206.79C18.9031 1206.61 18.9043 1206.43 18.8815 1206.26C18.795 1205.58 18.242 1205.03 17.1359 1203.91L17.1359 1203.91L2 1188.7V1188Z" fill="#282861"/>
<path d="M14.5579 1602.14C14.4648 1602.14 14.2707 1602.09 14.0192 1602C12.5163 1601.64 8.51103 1600.56 8.05795 1598.14C7.4771 1595.04 11.4641 1595.54 11.0579 1598.14C10.7275 1600.25 12.921 1601.58 14.0192 1602C14.443 1602.1 14.6679 1602.14 14.5579 1602.14Z" fill="#282861"/>
<path d="M14.5579 1603C14.4648 1603 14.2707 1603.05 14.0192 1603.14C12.5163 1603.5 8.51103 1604.58 8.05795 1607C7.4771 1610.1 11.4641 1609.6 11.0579 1607C10.7275 1604.89 12.921 1603.56 14.0192 1603.14C14.443 1603.04 14.6679 1603 14.5579 1603Z" fill="#282861"/>
<path d="M3.58118 1600.12C8.3988 1601.08 10.8732 1601.57 15 1602.53C15 1602.53 8.31319 1603.43 3.58118 1603.96C-1.15083 1604.49 -1.23644 1599.15 3.58118 1600.12Z" fill="#282861"/>
<path d="M14.5579 1602.14C14.4648 1602.14 14.2707 1602.09 14.0192 1602C12.5163 1601.64 8.51103 1600.56 8.05795 1598.14C7.4771 1595.04 11.4641 1595.54 11.0579 1598.14C10.7275 1600.25 12.921 1601.58 14.0192 1602C14.443 1602.1 14.6679 1602.14 14.5579 1602.14Z" fill="#282861"/>
<path d="M14.5579 1603C14.4648 1603 14.2707 1603.05 14.0192 1603.14C12.5163 1603.5 8.51103 1604.58 8.05795 1607C7.4771 1610.1 11.4641 1609.6 11.0579 1607C10.7275 1604.89 12.921 1603.56 14.0192 1603.14C14.443 1603.04 14.6679 1603 14.5579 1603Z" fill="#282861"/>
<path d="M3.58118 1600.12C8.3988 1601.08 10.8732 1601.57 15 1602.53C15 1602.53 8.31319 1603.43 3.58118 1603.96C-1.15083 1604.49 -1.23644 1599.15 3.58118 1600.12Z" fill="#282861"/>
<path d="M14.5579 1638.14C14.4648 1638.14 14.2707 1638.09 14.0192 1638C12.5163 1637.64 8.51103 1636.56 8.05795 1634.14C7.4771 1631.04 11.4641 1631.54 11.0579 1634.14C10.7275 1636.25 12.921 1637.58 14.0192 1638C14.443 1638.1 14.6679 1638.14 14.5579 1638.14Z" fill="#282861"/>
<path d="M14.5579 1639C14.4648 1639 14.2707 1639.05 14.0192 1639.14C12.5163 1639.5 8.51103 1640.58 8.05795 1643C7.4771 1646.1 11.4641 1645.6 11.0579 1643C10.7275 1640.89 12.921 1639.56 14.0192 1639.14C14.443 1639.04 14.6679 1639 14.5579 1639Z" fill="#282861"/>
<path d="M3.58118 1636.12C8.3988 1637.08 10.8732 1637.57 15 1638.53C15 1638.53 8.31319 1639.43 3.58118 1639.96C-1.15083 1640.49 -1.23644 1635.15 3.58118 1636.12Z" fill="#282861"/>
<path d="M14.5579 1638.14C14.4648 1638.14 14.2707 1638.09 14.0192 1638C12.5163 1637.64 8.51103 1636.56 8.05795 1634.14C7.4771 1631.04 11.4641 1631.54 11.0579 1634.14C10.7275 1636.25 12.921 1637.58 14.0192 1638C14.443 1638.1 14.6679 1638.14 14.5579 1638.14Z" fill="#282861"/>
<path d="M14.5579 1639C14.4648 1639 14.2707 1639.05 14.0192 1639.14C12.5163 1639.5 8.51103 1640.58 8.05795 1643C7.4771 1646.1 11.4641 1645.6 11.0579 1643C10.7275 1640.89 12.921 1639.56 14.0192 1639.14C14.443 1639.04 14.6679 1639 14.5579 1639Z" fill="#282861"/>
<path d="M3.58118 1636.12C8.3988 1637.08 10.8732 1637.57 15 1638.53C15 1638.53 8.31319 1639.43 3.58118 1639.96C-1.15083 1640.49 -1.23644 1635.15 3.58118 1636.12Z" fill="#282861"/>
<path d="M14.5579 1674.14C14.4648 1674.14 14.2707 1674.09 14.0192 1674C12.5163 1673.64 8.51103 1672.56 8.05795 1670.14C7.4771 1667.04 11.4641 1667.54 11.0579 1670.14C10.7275 1672.25 12.921 1673.58 14.0192 1674C14.443 1674.1 14.6679 1674.14 14.5579 1674.14Z" fill="#282861"/>
<path d="M14.5579 1675C14.4648 1675 14.2707 1675.05 14.0192 1675.14C12.5163 1675.5 8.51103 1676.58 8.05795 1679C7.4771 1682.1 11.4641 1681.6 11.0579 1679C10.7275 1676.89 12.921 1675.56 14.0192 1675.14C14.443 1675.04 14.6679 1675 14.5579 1675Z" fill="#282861"/>
<path d="M3.58118 1672.12C8.3988 1673.08 10.8732 1673.57 15 1674.53C15 1674.53 8.31319 1675.43 3.58118 1675.96C-1.15083 1676.49 -1.23644 1671.15 3.58118 1672.12Z" fill="#282861"/>
<path d="M14.5579 1710.14C14.4648 1710.14 14.2707 1710.09 14.0192 1710C12.5163 1709.64 8.51103 1708.56 8.05795 1706.14C7.4771 1703.04 11.4641 1703.54 11.0579 1706.14C10.7275 1708.25 12.921 1709.58 14.0192 1710C14.443 1710.1 14.6679 1710.14 14.5579 1710.14Z" fill="#282861"/>
<path d="M14.5579 1711C14.4648 1711 14.2707 1711.05 14.0192 1711.14C12.5163 1711.5 8.51103 1712.58 8.05795 1715C7.4771 1718.1 11.4641 1717.6 11.0579 1715C10.7275 1712.89 12.921 1711.56 14.0192 1711.14C14.443 1711.04 14.6679 1711 14.5579 1711Z" fill="#282861"/>
<path d="M3.58118 1708.12C8.3988 1709.08 10.8732 1709.57 15 1710.53C15 1710.53 8.31319 1711.43 3.58118 1711.96C-1.15083 1712.49 -1.23644 1707.15 3.58118 1708.12Z" fill="#282861"/>
<path d="M14.5579 1746.14C14.4648 1746.14 14.2707 1746.09 14.0192 1746C12.5163 1745.64 8.51103 1744.56 8.05795 1742.14C7.4771 1739.04 11.4641 1739.54 11.0579 1742.14C10.7275 1744.25 12.921 1745.58 14.0192 1746C14.443 1746.1 14.6679 1746.14 14.5579 1746.14Z" fill="#282861"/>
<path d="M14.5579 1747C14.4648 1747 14.2707 1747.05 14.0192 1747.14C12.5163 1747.5 8.51103 1748.58 8.05795 1751C7.4771 1754.1 11.4641 1753.6 11.0579 1751C10.7275 1748.89 12.921 1747.56 14.0192 1747.14C14.443 1747.04 14.6679 1747 14.5579 1747Z" fill="#282861"/>
<path d="M3.58118 1744.12C8.3988 1745.08 10.8732 1745.57 15 1746.53C15 1746.53 8.31319 1747.43 3.58118 1747.96C-1.15083 1748.49 -1.23644 1743.15 3.58118 1744.12Z" fill="#282861"/>
<path d="M14.5579 1782.14C14.4648 1782.14 14.2707 1782.09 14.0192 1782C12.5163 1781.64 8.51103 1780.56 8.05795 1778.14C7.4771 1775.04 11.4641 1775.54 11.0579 1778.14C10.7275 1780.25 12.921 1781.58 14.0192 1782C14.443 1782.1 14.6679 1782.14 14.5579 1782.14Z" fill="#282861"/>
<path d="M14.5579 1783C14.4648 1783 14.2707 1783.05 14.0192 1783.14C12.5163 1783.5 8.51103 1784.58 8.05795 1787C7.4771 1790.1 11.4641 1789.6 11.0579 1787C10.7275 1784.89 12.921 1783.56 14.0192 1783.14C14.443 1783.04 14.6679 1783 14.5579 1783Z" fill="#282861"/>
<path d="M3.58118 1780.12C8.3988 1781.08 10.8732 1781.57 15 1782.53C15 1782.53 8.31319 1783.43 3.58118 1783.96C-1.15083 1784.49 -1.23644 1779.15 3.58118 1780.12Z" fill="#282861"/>
<path d="M14.5579 1818.14C14.4648 1818.14 14.2707 1818.09 14.0192 1818C12.5163 1817.64 8.51103 1816.56 8.05795 1814.14C7.4771 1811.04 11.4641 1811.54 11.0579 1814.14C10.7275 1816.25 12.921 1817.58 14.0192 1818C14.443 1818.1 14.6679 1818.14 14.5579 1818.14Z" fill="#282861"/>
<path d="M14.5579 1819C14.4648 1819 14.2707 1819.05 14.0192 1819.14C12.5163 1819.5 8.51103 1820.58 8.05795 1823C7.4771 1826.1 11.4641 1825.6 11.0579 1823C10.7275 1820.89 12.921 1819.56 14.0192 1819.14C14.443 1819.04 14.6679 1819 14.5579 1819Z" fill="#282861"/>
<path d="M3.58118 1816.12C8.3988 1817.08 10.8732 1817.57 15 1818.53C15 1818.53 8.31319 1819.43 3.58118 1819.96C-1.15083 1820.49 -1.23644 1815.15 3.58118 1816.12Z" fill="#282861"/>
<path d="M14.5579 1854.14C14.4648 1854.14 14.2707 1854.09 14.0192 1854C12.5163 1853.64 8.51103 1852.56 8.05795 1850.14C7.4771 1847.04 11.4641 1847.54 11.0579 1850.14C10.7275 1852.25 12.921 1853.58 14.0192 1854C14.443 1854.1 14.6679 1854.14 14.5579 1854.14Z" fill="#282861"/>
<path d="M14.5579 1855C14.4648 1855 14.2707 1855.05 14.0192 1855.14C12.5163 1855.5 8.51103 1856.58 8.05795 1859C7.4771 1862.1 11.4641 1861.6 11.0579 1859C10.7275 1856.89 12.921 1855.56 14.0192 1855.14C14.443 1855.04 14.6679 1855 14.5579 1855Z" fill="#282861"/>
<path d="M3.58118 1852.12C8.3988 1853.08 10.8732 1853.57 15 1854.53C15 1854.53 8.31319 1855.43 3.58118 1855.96C-1.15083 1856.49 -1.23644 1851.15 3.58118 1852.12Z" fill="#282861"/>
<path d="M14.5579 1890.14C14.4648 1890.14 14.2707 1890.09 14.0192 1890C12.5163 1889.64 8.51103 1888.56 8.05795 1886.14C7.4771 1883.04 11.4641 1883.54 11.0579 1886.14C10.7275 1888.25 12.921 1889.58 14.0192 1890C14.443 1890.1 14.6679 1890.14 14.5579 1890.14Z" fill="#282861"/>
<path d="M14.5579 1891C14.4648 1891 14.2707 1891.05 14.0192 1891.14C12.5163 1891.5 8.51103 1892.58 8.05795 1895C7.4771 1898.1 11.4641 1897.6 11.0579 1895C10.7275 1892.89 12.921 1891.56 14.0192 1891.14C14.443 1891.04 14.6679 1891 14.5579 1891Z" fill="#282861"/>
<path d="M3.58118 1888.12C8.3988 1889.08 10.8732 1889.57 15 1890.53C15 1890.53 8.31319 1891.43 3.58118 1891.96C-1.15083 1892.49 -1.23644 1887.15 3.58118 1888.12Z" fill="#282861"/>
<path d="M14.5579 1926.14C14.4648 1926.14 14.2707 1926.09 14.0192 1926C12.5163 1925.64 8.51103 1924.56 8.05795 1922.14C7.4771 1919.04 11.4641 1919.54 11.0579 1922.14C10.7275 1924.25 12.921 1925.58 14.0192 1926C14.443 1926.1 14.6679 1926.14 14.5579 1926.14Z" fill="#282861"/>
<path d="M14.5579 1927C14.4648 1927 14.2707 1927.05 14.0192 1927.14C12.5163 1927.5 8.51103 1928.58 8.05795 1931C7.4771 1934.1 11.4641 1933.6 11.0579 1931C10.7275 1928.89 12.921 1927.56 14.0192 1927.14C14.443 1927.04 14.6679 1927 14.5579 1927Z" fill="#282861"/>
<path d="M3.58118 1924.12C8.3988 1925.08 10.8732 1925.57 15 1926.53C15 1926.53 8.31319 1927.43 3.58118 1927.96C-1.15083 1928.49 -1.23644 1923.15 3.58118 1924.12Z" fill="#282861"/>
<path d="M14.5579 1962.14C14.4648 1962.14 14.2707 1962.09 14.0192 1962C12.5163 1961.64 8.51103 1960.56 8.05795 1958.14C7.4771 1955.04 11.4641 1955.54 11.0579 1958.14C10.7275 1960.25 12.921 1961.58 14.0192 1962C14.443 1962.1 14.6679 1962.14 14.5579 1962.14Z" fill="#282861"/>
<path d="M14.5579 1963C14.4648 1963 14.2707 1963.05 14.0192 1963.14C12.5163 1963.5 8.51103 1964.58 8.05795 1967C7.4771 1970.1 11.4641 1969.6 11.0579 1967C10.7275 1964.89 12.921 1963.56 14.0192 1963.14C14.443 1963.04 14.6679 1963 14.5579 1963Z" fill="#282861"/>
<path d="M3.58118 1960.12C8.3988 1961.08 10.8732 1961.57 15 1962.53C15 1962.53 8.31319 1963.43 3.58118 1963.96C-1.15083 1964.49 -1.23644 1959.15 3.58118 1960.12Z" fill="#282861"/>
<path fill-rule="evenodd" clip-rule="evenodd" d="M2 1584H43V2004H14.151L17.1016 2001.11C18.2222 2000.01 18.7826 1999.46 18.878 1998.79C18.9031 1998.61 18.9043 1998.43 18.8815 1998.26C18.795 1997.58 18.242 1997.03 17.1359 1995.91L2 1980.7V1979.9L17.1016 1965.11C18.2222 1964.01 18.7826 1963.46 18.878 1962.79C18.9031 1962.61 18.9043 1962.43 18.8815 1962.26C18.795 1961.58 18.242 1961.03 17.1359 1959.91L2 1944.7V1943.9L17.1016 1929.11C18.2222 1928.01 18.7826 1927.46 18.878 1926.79C18.9031 1926.61 18.9043 1926.43 18.8815 1926.26C18.795 1925.58 18.242 1925.03 17.1359 1923.91L2 1908.7V1907.9L17.1016 1893.11C18.2222 1892.01 18.7826 1891.46 18.878 1890.79C18.9031 1890.61 18.9043 1890.43 18.8815 1890.26C18.795 1889.58 18.242 1889.03 17.1359 1887.91L2 1872.7V1871.9L17.1016 1857.11C18.2222 1856.01 18.7826 1855.46 18.878 1854.79C18.9031 1854.61 18.9043 1854.43 18.8815 1854.26C18.795 1853.58 18.242 1853.03 17.1359 1851.91L2 1836.7V1835.9L17.1016 1821.11L17.1017 1821.11C18.2223 1820.01 18.7826 1819.46 18.878 1818.79C18.9031 1818.61 18.9043 1818.43 18.8815 1818.26C18.795 1817.58 18.242 1817.03 17.1359 1815.91L2 1800.7V1799.9L17.1016 1785.11L17.1017 1785.11C18.2223 1784.01 18.7826 1783.46 18.878 1782.79C18.9031 1782.61 18.9043 1782.43 18.8815 1782.26C18.795 1781.58 18.242 1781.03 17.1359 1779.91L2 1764.7V1763.9L17.1016 1749.11L17.1017 1749.11C18.2223 1748.01 18.7826 1747.46 18.878 1746.79C18.9031 1746.61 18.9043 1746.43 18.8815 1746.26C18.795 1745.58 18.242 1745.03 17.1359 1743.91L2 1728.7V1727.9L17.1016 1713.11C18.2222 1712.01 18.7826 1711.46 18.878 1710.79C18.9031 1710.61 18.9043 1710.43 18.8815 1710.26C18.795 1709.58 18.242 1709.03 17.1359 1707.91L2 1692.7V1691.9L17.1016 1677.11C18.2222 1676.01 18.7826 1675.46 18.878 1674.79C18.9031 1674.61 18.9043 1674.43 18.8815 1674.26C18.795 1673.58 18.242 1673.03 17.1359 1671.91L2 1656.7V1655.9L17.1016 1641.11C18.2222 1640.01 18.7826 1639.46 18.878 1638.79C18.9031 1638.61 18.9043 1638.43 18.8815 1638.26C18.795 1637.58 18.242 1637.03 17.1359 1635.91L2 1620.7V1619.9L17.1016 1605.11C18.2222 1604.01 18.7826 1603.46 18.878 1602.79C18.9031 1602.61 18.9043 1602.43 18.8815 1602.26C18.795 1601.58 18.242 1601.03 17.1359 1599.91L17.1359 1599.91L2 1584.7V1584Z" fill="#282861"/>
<path d="M14.5579 1998.14C14.4648 1998.14 14.2707 1998.09 14.0192 1998C12.5163 1997.64 8.51103 1996.56 8.05795 1994.14C7.4771 1991.04 11.4641 1991.54 11.0579 1994.14C10.7275 1996.25 12.921 1997.58 14.0192 1998C14.443 1998.1 14.6679 1998.14 14.5579 1998.14Z" fill="#282861"/>
<path d="M14.5579 1999C14.4648 1999 14.2707 1999.05 14.0192 1999.14C12.5163 1999.5 8.51103 2000.58 8.05795 2003C7.4771 2006.1 11.4641 2005.6 11.0579 2003C10.7275 2000.89 12.921 1999.56 14.0192 1999.14C14.443 1999.04 14.6679 1999 14.5579 1999Z" fill="#282861"/>
<path d="M3.58118 1996.12C8.3988 1997.08 10.8732 1997.57 15 1998.53C15 1998.53 8.31319 1999.43 3.58118 1999.96C-1.15083 2000.49 -1.23644 1995.15 3.58118 1996.12Z" fill="#282861"/>
<path d="M14.5579 1998.14C14.4648 1998.14 14.2707 1998.09 14.0192 1998C12.5163 1997.64 8.51103 1996.56 8.05795 1994.14C7.4771 1991.04 11.4641 1991.54 11.0579 1994.14C10.7275 1996.25 12.921 1997.58 14.0192 1998C14.443 1998.1 14.6679 1998.14 14.5579 1998.14Z" fill="#282861"/>
<path d="M14.5579 1999C14.4648 1999 14.2707 1999.05 14.0192 1999.14C12.5163 1999.5 8.51103 2000.58 8.05795 2003C7.4771 2006.1 11.4641 2005.6 11.0579 2003C10.7275 2000.89 12.921 1999.56 14.0192 1999.14C14.443 1999.04 14.6679 1999 14.5579 1999Z" fill="#282861"/>
<path d="M3.58118 1996.12C8.3988 1997.08 10.8732 1997.57 15 1998.53C15 1998.53 8.31319 1999.43 3.58118 1999.96C-1.15083 2000.49 -1.23644 1995.15 3.58118 1996.12Z" fill="#282861"/>
<path d="M14.5579 2034.14C14.4648 2034.14 14.2707 2034.09 14.0192 2034C12.5163 2033.64 8.51103 2032.56 8.05795 2030.14C7.4771 2027.04 11.4641 2027.54 11.0579 2030.14C10.7275 2032.25 12.921 2033.58 14.0192 2034C14.443 2034.1 14.6679 2034.14 14.5579 2034.14Z" fill="#282861"/>
<path d="M14.5579 2035C14.4648 2035 14.2707 2035.05 14.0192 2035.14C12.5163 2035.5 8.51103 2036.58 8.05795 2039C7.4771 2042.1 11.4641 2041.6 11.0579 2039C10.7275 2036.89 12.921 2035.56 14.0192 2035.14C14.443 2035.04 14.6679 2035 14.5579 2035Z" fill="#282861"/>
<path d="M3.58118 2032.12C8.3988 2033.08 10.8732 2033.57 15 2034.53C15 2034.53 8.31319 2035.43 3.58118 2035.96C-1.15083 2036.49 -1.23644 2031.15 3.58118 2032.12Z" fill="#282861"/>
<path d="M14.5579 2034.14C14.4648 2034.14 14.2707 2034.09 14.0192 2034C12.5163 2033.64 8.51103 2032.56 8.05795 2030.14C7.4771 2027.04 11.4641 2027.54 11.0579 2030.14C10.7275 2032.25 12.921 2033.58 14.0192 2034C14.443 2034.1 14.6679 2034.14 14.5579 2034.14Z" fill="#282861"/>
<path d="M14.5579 2035C14.4648 2035 14.2707 2035.05 14.0192 2035.14C12.5163 2035.5 8.51103 2036.58 8.05795 2039C7.4771 2042.1 11.4641 2041.6 11.0579 2039C10.7275 2036.89 12.921 2035.56 14.0192 2035.14C14.443 2035.04 14.6679 2035 14.5579 2035Z" fill="#282861"/>
<path d="M3.58118 2032.12C8.3988 2033.08 10.8732 2033.57 15 2034.53C15 2034.53 8.31319 2035.43 3.58118 2035.96C-1.15083 2036.49 -1.23644 2031.15 3.58118 2032.12Z" fill="#282861"/>
<path d="M14.5579 2070.14C14.4648 2070.14 14.2707 2070.09 14.0192 2070C12.5163 2069.64 8.51103 2068.56 8.05795 2066.14C7.4771 2063.04 11.4641 2063.54 11.0579 2066.14C10.7275 2068.25 12.921 2069.58 14.0192 2070C14.443 2070.1 14.6679 2070.14 14.5579 2070.14Z" fill="#282861"/>
<path d="M14.5579 2071C14.4648 2071 14.2707 2071.05 14.0192 2071.14C12.5163 2071.5 8.51103 2072.58 8.05795 2075C7.4771 2078.1 11.4641 2077.6 11.0579 2075C10.7275 2072.89 12.921 2071.56 14.0192 2071.14C14.443 2071.04 14.6679 2071 14.5579 2071Z" fill="#282861"/>
<path d="M3.58118 2068.12C8.3988 2069.08 10.8732 2069.57 15 2070.53C15 2070.53 8.31319 2071.43 3.58118 2071.96C-1.15083 2072.49 -1.23644 2067.15 3.58118 2068.12Z" fill="#282861"/>
<path d="M14.5579 2106.14C14.4648 2106.14 14.2707 2106.09 14.0192 2106C12.5163 2105.64 8.51103 2104.56 8.05795 2102.14C7.4771 2099.04 11.4641 2099.54 11.0579 2102.14C10.7275 2104.25 12.921 2105.58 14.0192 2106C14.443 2106.1 14.6679 2106.14 14.5579 2106.14Z" fill="#282861"/>
<path d="M14.5579 2107C14.4648 2107 14.2707 2107.05 14.0192 2107.14C12.5163 2107.5 8.51103 2108.58 8.05795 2111C7.4771 2114.1 11.4641 2113.6 11.0579 2111C10.7275 2108.89 12.921 2107.56 14.0192 2107.14C14.443 2107.04 14.6679 2107 14.5579 2107Z" fill="#282861"/>
<path d="M3.58118 2104.12C8.3988 2105.08 10.8732 2105.57 15 2106.53C15 2106.53 8.31319 2107.43 3.58118 2107.96C-1.15083 2108.49 -1.23644 2103.15 3.58118 2104.12Z" fill="#282861"/>
<path d="M14.5579 2142.14C14.4648 2142.14 14.2707 2142.09 14.0192 2142C12.5163 2141.64 8.51103 2140.56 8.05795 2138.14C7.4771 2135.04 11.4641 2135.54 11.0579 2138.14C10.7275 2140.25 12.921 2141.58 14.0192 2142C14.443 2142.1 14.6679 2142.14 14.5579 2142.14Z" fill="#282861"/>
<path d="M14.5579 2143C14.4648 2143 14.2707 2143.05 14.0192 2143.14C12.5163 2143.5 8.51103 2144.58 8.05795 2147C7.4771 2150.1 11.4641 2149.6 11.0579 2147C10.7275 2144.89 12.921 2143.56 14.0192 2143.14C14.443 2143.04 14.6679 2143 14.5579 2143Z" fill="#282861"/>
<path d="M3.58118 2140.12C8.3988 2141.08 10.8732 2141.57 15 2142.53C15 2142.53 8.31319 2143.43 3.58118 2143.96C-1.15083 2144.49 -1.23644 2139.15 3.58118 2140.12Z" fill="#282861"/>
<path d="M14.5579 2178.14C14.4648 2178.14 14.2707 2178.09 14.0192 2178C12.5163 2177.64 8.51103 2176.56 8.05795 2174.14C7.4771 2171.04 11.4641 2171.54 11.0579 2174.14C10.7275 2176.25 12.921 2177.58 14.0192 2178C14.443 2178.1 14.6679 2178.14 14.5579 2178.14Z" fill="#282861"/>
<path d="M14.5579 2179C14.4648 2179 14.2707 2179.05 14.0192 2179.14C12.5163 2179.5 8.51103 2180.58 8.05795 2183C7.4771 2186.1 11.4641 2185.6 11.0579 2183C10.7275 2180.89 12.921 2179.56 14.0192 2179.14C14.443 2179.04 14.6679 2179 14.5579 2179Z" fill="#282861"/>
<path d="M3.58118 2176.12C8.3988 2177.08 10.8732 2177.57 15 2178.53C15 2178.53 8.31319 2179.43 3.58118 2179.96C-1.15083 2180.49 -1.23644 2175.15 3.58118 2176.12Z" fill="#282861"/>
<path d="M14.5579 2214.14C14.4648 2214.14 14.2707 2214.09 14.0192 2214C12.5163 2213.64 8.51103 2212.56 8.05795 2210.14C7.4771 2207.04 11.4641 2207.54 11.0579 2210.14C10.7275 2212.25 12.921 2213.58 14.0192 2214C14.443 2214.1 14.6679 2214.14 14.5579 2214.14Z" fill="#282861"/>
<path d="M14.5579 2215C14.4648 2215 14.2707 2215.05 14.0192 2215.14C12.5163 2215.5 8.51103 2216.58 8.05795 2219C7.4771 2222.1 11.4641 2221.6 11.0579 2219C10.7275 2216.89 12.921 2215.56 14.0192 2215.14C14.443 2215.04 14.6679 2215 14.5579 2215Z" fill="#282861"/>
<path d="M3.58118 2212.12C8.3988 2213.08 10.8732 2213.57 15 2214.53C15 2214.53 8.31319 2215.43 3.58118 2215.96C-1.15083 2216.49 -1.23644 2211.15 3.58118 2212.12Z" fill="#282861"/>
<path d="M14.5579 2250.14C14.4648 2250.14 14.2707 2250.09 14.0192 2250C12.5163 2249.64 8.51103 2248.56 8.05795 2246.14C7.4771 2243.04 11.4641 2243.54 11.0579 2246.14C10.7275 2248.25 12.921 2249.58 14.0192 2250C14.443 2250.1 14.6679 2250.14 14.5579 2250.14Z" fill="#282861"/>
<path d="M14.5579 2251C14.4648 2251 14.2707 2251.05 14.0192 2251.14C12.5163 2251.5 8.51103 2252.58 8.05795 2255C7.4771 2258.1 11.4641 2257.6 11.0579 2255C10.7275 2252.89 12.921 2251.56 14.0192 2251.14C14.443 2251.04 14.6679 2251 14.5579 2251Z" fill="#282861"/>
<path d="M3.58118 2248.12C8.3988 2249.08 10.8732 2249.57 15 2250.53C15 2250.53 8.31319 2251.43 3.58118 2251.96C-1.15083 2252.49 -1.23644 2247.15 3.58118 2248.12Z" fill="#282861"/>
<path d="M14.5579 2286.14C14.4648 2286.14 14.2707 2286.09 14.0192 2286C12.5163 2285.64 8.51103 2284.56 8.05795 2282.14C7.4771 2279.04 11.4641 2279.54 11.0579 2282.14C10.7275 2284.25 12.921 2285.58 14.0192 2286C14.443 2286.1 14.6679 2286.14 14.5579 2286.14Z" fill="#282861"/>
<path d="M14.5579 2287C14.4648 2287 14.2707 2287.05 14.0192 2287.14C12.5163 2287.5 8.51103 2288.58 8.05795 2291C7.4771 2294.1 11.4641 2293.6 11.0579 2291C10.7275 2288.89 12.921 2287.56 14.0192 2287.14C14.443 2287.04 14.6679 2287 14.5579 2287Z" fill="#282861"/>
<path d="M3.58118 2284.12C8.3988 2285.08 10.8732 2285.57 15 2286.53C15 2286.53 8.31319 2287.43 3.58118 2287.96C-1.15083 2288.49 -1.23644 2283.15 3.58118 2284.12Z" fill="#282861"/>
<path d="M14.5579 2322.14C14.4648 2322.14 14.2707 2322.09 14.0192 2322C12.5163 2321.64 8.51103 2320.56 8.05795 2318.14C7.4771 2315.04 11.4641 2315.54 11.0579 2318.14C10.7275 2320.25 12.921 2321.58 14.0192 2322C14.443 2322.1 14.6679 2322.14 14.5579 2322.14Z" fill="#282861"/>
<path d="M14.5579 2323C14.4648 2323 14.2707 2323.05 14.0192 2323.14C12.5163 2323.5 8.51103 2324.58 8.05795 2327C7.4771 2330.1 11.4641 2329.6 11.0579 2327C10.7275 2324.89 12.921 2323.56 14.0192 2323.14C14.443 2323.04 14.6679 2323 14.5579 2323Z" fill="#282861"/>
<path d="M3.58118 2320.12C8.3988 2321.08 10.8732 2321.57 15 2322.53C15 2322.53 8.31319 2323.43 3.58118 2323.96C-1.15083 2324.49 -1.23644 2319.15 3.58118 2320.12Z" fill="#282861"/>
<path d="M14.5579 2358.14C14.4648 2358.14 14.2707 2358.09 14.0192 2358C12.5163 2357.64 8.51103 2356.56 8.05795 2354.14C7.4771 2351.04 11.4641 2351.54 11.0579 2354.14C10.7275 2356.25 12.921 2357.58 14.0192 2358C14.443 2358.1 14.6679 2358.14 14.5579 2358.14Z" fill="#282861"/>
<path d="M14.5579 2359C14.4648 2359 14.2707 2359.05 14.0192 2359.14C12.5163 2359.5 8.51103 2360.58 8.05795 2363C7.4771 2366.1 11.4641 2365.6 11.0579 2363C10.7275 2360.89 12.921 2359.56 14.0192 2359.14C14.443 2359.04 14.6679 2359 14.5579 2359Z" fill="#282861"/>
<path d="M3.58118 2356.12C8.3988 2357.08 10.8732 2357.57 15 2358.53C15 2358.53 8.31319 2359.43 3.58118 2359.96C-1.15083 2360.49 -1.23644 2355.15 3.58118 2356.12Z" fill="#282861"/>
<path fill-rule="evenodd" clip-rule="evenodd" d="M2 1980H43V2400H14.151L17.1016 2397.11C18.2222 2396.01 18.7826 2395.46 18.878 2394.79C18.9031 2394.61 18.9043 2394.43 18.8815 2394.26C18.795 2393.58 18.242 2393.03 17.1359 2391.91L2 2376.7V2375.9L17.1016 2361.11C18.2222 2360.01 18.7826 2359.46 18.878 2358.79C18.9031 2358.61 18.9043 2358.43 18.8815 2358.26C18.795 2357.58 18.242 2357.03 17.1359 2355.91L2 2340.7V2339.9L17.1016 2325.11C18.2222 2324.01 18.7826 2323.46 18.878 2322.79C18.9031 2322.61 18.9043 2322.43 18.8815 2322.26C18.795 2321.58 18.242 2321.03 17.1359 2319.91L2 2304.7V2303.9L17.1016 2289.11C18.2222 2288.01 18.7826 2287.46 18.878 2286.79C18.9031 2286.61 18.9043 2286.43 18.8815 2286.26C18.795 2285.58 18.242 2285.03 17.1359 2283.91L2 2268.7V2267.9L17.1016 2253.11C18.2222 2252.01 18.7826 2251.46 18.878 2250.79C18.9031 2250.61 18.9043 2250.43 18.8815 2250.26C18.795 2249.58 18.242 2249.03 17.1359 2247.91L2 2232.7V2231.9L17.1016 2217.11L17.1017 2217.11C18.2223 2216.01 18.7826 2215.46 18.878 2214.79C18.9031 2214.61 18.9043 2214.43 18.8815 2214.26C18.795 2213.58 18.242 2213.03 17.1359 2211.91L2 2196.7V2195.9L17.1016 2181.11L17.1017 2181.11C18.2223 2180.01 18.7826 2179.46 18.878 2178.79C18.9031 2178.61 18.9043 2178.43 18.8815 2178.26C18.795 2177.58 18.242 2177.03 17.1359 2175.91L2 2160.7V2159.9L17.1016 2145.11L17.1017 2145.11C18.2223 2144.01 18.7826 2143.46 18.878 2142.79C18.9031 2142.61 18.9043 2142.43 18.8815 2142.26C18.795 2141.58 18.242 2141.03 17.1359 2139.91L2 2124.7V2123.9L17.1016 2109.11C18.2222 2108.01 18.7826 2107.46 18.878 2106.79C18.9031 2106.61 18.9043 2106.43 18.8815 2106.26C18.795 2105.58 18.242 2105.03 17.1359 2103.91L2 2088.7V2087.9L17.1016 2073.11C18.2222 2072.01 18.7826 2071.46 18.878 2070.79C18.9031 2070.61 18.9043 2070.43 18.8815 2070.26C18.795 2069.58 18.242 2069.03 17.1359 2067.91L2 2052.7V2051.9L17.1016 2037.11C18.2222 2036.01 18.7826 2035.46 18.878 2034.79C18.9031 2034.61 18.9043 2034.43 18.8815 2034.26C18.795 2033.58 18.242 2033.03 17.1359 2031.91L2 2016.7V2015.9L17.1016 2001.11C18.2222 2000.01 18.7826 1999.46 18.878 1998.79C18.9031 1998.61 18.9043 1998.43 18.8815 1998.26C18.795 1997.58 18.242 1997.03 17.1359 1995.91L17.1359 1995.91L2 1980.7V1980Z" fill="#282861"/>
<path d="M14.5579 2394.14C14.4648 2394.14 14.2707 2394.09 14.0192 2394C12.5163 2393.64 8.51103 2392.56 8.05795 2390.14C7.4771 2387.04 11.4641 2387.54 11.0579 2390.14C10.7275 2392.25 12.921 2393.58 14.0192 2394C14.443 2394.1 14.6679 2394.14 14.5579 2394.14Z" fill="#282861"/>
<path d="M14.5579 2395C14.4648 2395 14.2707 2395.05 14.0192 2395.14C12.5163 2395.5 8.51103 2396.58 8.05795 2399C7.4771 2402.1 11.4641 2401.6 11.0579 2399C10.7275 2396.89 12.921 2395.56 14.0192 2395.14C14.443 2395.04 14.6679 2395 14.5579 2395Z" fill="#282861"/>
<path d="M3.58118 2392.12C8.3988 2393.08 10.8732 2393.57 15 2394.53C15 2394.53 8.31319 2395.43 3.58118 2395.96C-1.15083 2396.49 -1.23644 2391.15 3.58118 2392.12Z" fill="#282861"/>
<path d="M14.5579 2394.14C14.4648 2394.14 14.2707 2394.09 14.0192 2394C12.5163 2393.64 8.51103 2392.56 8.05795 2390.14C7.4771 2387.04 11.4641 2387.54 11.0579 2390.14C10.7275 2392.25 12.921 2393.58 14.0192 2394C14.443 2394.1 14.6679 2394.14 14.5579 2394.14Z" fill="#282861"/>
<path d="M14.5579 2395C14.4648 2395 14.2707 2395.05 14.0192 2395.14C12.5163 2395.5 8.51103 2396.58 8.05795 2399C7.4771 2402.1 11.4641 2401.6 11.0579 2399C10.7275 2396.89 12.921 2395.56 14.0192 2395.14C14.443 2395.04 14.6679 2395 14.5579 2395Z" fill="#282861"/>
<path d="M3.58118 2392.12C8.3988 2393.08 10.8732 2393.57 15 2394.53C15 2394.53 8.31319 2395.43 3.58118 2395.96C-1.15083 2396.49 -1.23644 2391.15 3.58118 2392.12Z" fill="#282861"/>
<path d="M14.5579 2430.14C14.4648 2430.14 14.2707 2430.09 14.0192 2430C12.5163 2429.64 8.51103 2428.56 8.05795 2426.14C7.4771 2423.04 11.4641 2423.54 11.0579 2426.14C10.7275 2428.25 12.921 2429.58 14.0192 2430C14.443 2430.1 14.6679 2430.14 14.5579 2430.14Z" fill="#282861"/>
<path d="M14.5579 2431C14.4648 2431 14.2707 2431.05 14.0192 2431.14C12.5163 2431.5 8.51103 2432.58 8.05795 2435C7.4771 2438.1 11.4641 2437.6 11.0579 2435C10.7275 2432.89 12.921 2431.56 14.0192 2431.14C14.443 2431.04 14.6679 2431 14.5579 2431Z" fill="#282861"/>
<path d="M3.58118 2428.12C8.3988 2429.08 10.8732 2429.57 15 2430.53C15 2430.53 8.31319 2431.43 3.58118 2431.96C-1.15083 2432.49 -1.23644 2427.15 3.58118 2428.12Z" fill="#282861"/>
<path d="M14.5579 2430.14C14.4648 2430.14 14.2707 2430.09 14.0192 2430C12.5163 2429.64 8.51103 2428.56 8.05795 2426.14C7.4771 2423.04 11.4641 2423.54 11.0579 2426.14C10.7275 2428.25 12.921 2429.58 14.0192 2430C14.443 2430.1 14.6679 2430.14 14.5579 2430.14Z" fill="#282861"/>
<path d="M14.5579 2431C14.4648 2431 14.2707 2431.05 14.0192 2431.14C12.5163 2431.5 8.51103 2432.58 8.05795 2435C7.4771 2438.1 11.4641 2437.6 11.0579 2435C10.7275 2432.89 12.921 2431.56 14.0192 2431.14C14.443 2431.04 14.6679 2431 14.5579 2431Z" fill="#282861"/>
<path d="M3.58118 2428.12C8.3988 2429.08 10.8732 2429.57 15 2430.53C15 2430.53 8.31319 2431.43 3.58118 2431.96C-1.15083 2432.49 -1.23644 2427.15 3.58118 2428.12Z" fill="#282861"/>
<path d="M14.5579 2466.14C14.4648 2466.14 14.2707 2466.09 14.0192 2466C12.5163 2465.64 8.51103 2464.56 8.05795 2462.14C7.4771 2459.04 11.4641 2459.54 11.0579 2462.14C10.7275 2464.25 12.921 2465.58 14.0192 2466C14.443 2466.1 14.6679 2466.14 14.5579 2466.14Z" fill="#282861"/>
<path d="M14.5579 2467C14.4648 2467 14.2707 2467.05 14.0192 2467.14C12.5163 2467.5 8.51103 2468.58 8.05795 2471C7.4771 2474.1 11.4641 2473.6 11.0579 2471C10.7275 2468.89 12.921 2467.56 14.0192 2467.14C14.443 2467.04 14.6679 2467 14.5579 2467Z" fill="#282861"/>
<path d="M3.58118 2464.12C8.3988 2465.08 10.8732 2465.57 15 2466.53C15 2466.53 8.31319 2467.43 3.58118 2467.96C-1.15083 2468.49 -1.23644 2463.15 3.58118 2464.12Z" fill="#282861"/>
<path d="M14.5579 2502.14C14.4648 2502.14 14.2707 2502.09 14.0192 2502C12.5163 2501.64 8.51103 2500.56 8.05795 2498.14C7.4771 2495.04 11.4641 2495.54 11.0579 2498.14C10.7275 2500.25 12.921 2501.58 14.0192 2502C14.443 2502.1 14.6679 2502.14 14.5579 2502.14Z" fill="#282861"/>
<path d="M14.5579 2503C14.4648 2503 14.2707 2503.05 14.0192 2503.14C12.5163 2503.5 8.51103 2504.58 8.05795 2507C7.4771 2510.1 11.4641 2509.6 11.0579 2507C10.7275 2504.89 12.921 2503.56 14.0192 2503.14C14.443 2503.04 14.6679 2503 14.5579 2503Z" fill="#282861"/>
<path d="M3.58118 2500.12C8.3988 2501.08 10.8732 2501.57 15 2502.53C15 2502.53 8.31319 2503.43 3.58118 2503.96C-1.15083 2504.49 -1.23644 2499.15 3.58118 2500.12Z" fill="#282861"/>
<path d="M14.5579 2538.14C14.4648 2538.14 14.2707 2538.09 14.0192 2538C12.5163 2537.64 8.51103 2536.56 8.05795 2534.14C7.4771 2531.04 11.4641 2531.54 11.0579 2534.14C10.7275 2536.25 12.921 2537.58 14.0192 2538C14.443 2538.1 14.6679 2538.14 14.5579 2538.14Z" fill="#282861"/>
<path d="M14.5579 2539C14.4648 2539 14.2707 2539.05 14.0192 2539.14C12.5163 2539.5 8.51103 2540.58 8.05795 2543C7.4771 2546.1 11.4641 2545.6 11.0579 2543C10.7275 2540.89 12.921 2539.56 14.0192 2539.14C14.443 2539.04 14.6679 2539 14.5579 2539Z" fill="#282861"/>
<path d="M3.58118 2536.12C8.3988 2537.08 10.8732 2537.57 15 2538.53C15 2538.53 8.31319 2539.43 3.58118 2539.96C-1.15083 2540.49 -1.23644 2535.15 3.58118 2536.12Z" fill="#282861"/>
<path d="M14.5579 2574.14C14.4648 2574.14 14.2707 2574.09 14.0192 2574C12.5163 2573.64 8.51103 2572.56 8.05795 2570.14C7.4771 2567.04 11.4641 2567.54 11.0579 2570.14C10.7275 2572.25 12.921 2573.58 14.0192 2574C14.443 2574.1 14.6679 2574.14 14.5579 2574.14Z" fill="#282861"/>
<path d="M14.5579 2575C14.4648 2575 14.2707 2575.05 14.0192 2575.14C12.5163 2575.5 8.51103 2576.58 8.05795 2579C7.4771 2582.1 11.4641 2581.6 11.0579 2579C10.7275 2576.89 12.921 2575.56 14.0192 2575.14C14.443 2575.04 14.6679 2575 14.5579 2575Z" fill="#282861"/>
<path d="M3.58118 2572.12C8.3988 2573.08 10.8732 2573.57 15 2574.53C15 2574.53 8.31319 2575.43 3.58118 2575.96C-1.15083 2576.49 -1.23644 2571.15 3.58118 2572.12Z" fill="#282861"/>
<path d="M14.5579 2610.14C14.4648 2610.14 14.2707 2610.09 14.0192 2610C12.5163 2609.64 8.51103 2608.56 8.05795 2606.14C7.4771 2603.04 11.4641 2603.54 11.0579 2606.14C10.7275 2608.25 12.921 2609.58 14.0192 2610C14.443 2610.1 14.6679 2610.14 14.5579 2610.14Z" fill="#282861"/>
<path d="M14.5579 2611C14.4648 2611 14.2707 2611.05 14.0192 2611.14C12.5163 2611.5 8.51103 2612.58 8.05795 2615C7.4771 2618.1 11.4641 2617.6 11.0579 2615C10.7275 2612.89 12.921 2611.56 14.0192 2611.14C14.443 2611.04 14.6679 2611 14.5579 2611Z" fill="#282861"/>
<path d="M3.58118 2608.12C8.3988 2609.08 10.8732 2609.57 15 2610.53C15 2610.53 8.31319 2611.43 3.58118 2611.96C-1.15083 2612.49 -1.23644 2607.15 3.58118 2608.12Z" fill="#282861"/>
<path d="M14.5579 2646.14C14.4648 2646.14 14.2707 2646.09 14.0192 2646C12.5163 2645.64 8.51103 2644.56 8.05795 2642.14C7.4771 2639.04 11.4641 2639.54 11.0579 2642.14C10.7275 2644.25 12.921 2645.58 14.0192 2646C14.443 2646.1 14.6679 2646.14 14.5579 2646.14Z" fill="#282861"/>
<path d="M14.5579 2647C14.4648 2647 14.2707 2647.05 14.0192 2647.14C12.5163 2647.5 8.51103 2648.58 8.05795 2651C7.4771 2654.1 11.4641 2653.6 11.0579 2651C10.7275 2648.89 12.921 2647.56 14.0192 2647.14C14.443 2647.04 14.6679 2647 14.5579 2647Z" fill="#282861"/>
<path d="M3.58118 2644.12C8.3988 2645.08 10.8732 2645.57 15 2646.53C15 2646.53 8.31319 2647.43 3.58118 2647.96C-1.15083 2648.49 -1.23644 2643.15 3.58118 2644.12Z" fill="#282861"/>
<path d="M14.5579 2682.14C14.4648 2682.14 14.2707 2682.09 14.0192 2682C12.5163 2681.64 8.51103 2680.56 8.05795 2678.14C7.4771 2675.04 11.4641 2675.54 11.0579 2678.14C10.7275 2680.25 12.921 2681.58 14.0192 2682C14.443 2682.1 14.6679 2682.14 14.5579 2682.14Z" fill="#282861"/>
<path d="M14.5579 2683C14.4648 2683 14.2707 2683.05 14.0192 2683.14C12.5163 2683.5 8.51103 2684.58 8.05795 2687C7.4771 2690.1 11.4641 2689.6 11.0579 2687C10.7275 2684.89 12.921 2683.56 14.0192 2683.14C14.443 2683.04 14.6679 2683 14.5579 2683Z" fill="#282861"/>
<path d="M3.58118 2680.12C8.3988 2681.08 10.8732 2681.57 15 2682.53C15 2682.53 8.31319 2683.43 3.58118 2683.96C-1.15083 2684.49 -1.23644 2679.15 3.58118 2680.12Z" fill="#282861"/>
<path d="M14.5579 2718.14C14.4648 2718.14 14.2707 2718.09 14.0192 2718C12.5163 2717.64 8.51103 2716.56 8.05795 2714.14C7.4771 2711.04 11.4641 2711.54 11.0579 2714.14C10.7275 2716.25 12.921 2717.58 14.0192 2718C14.443 2718.1 14.6679 2718.14 14.5579 2718.14Z" fill="#282861"/>
<path d="M14.5579 2719C14.4648 2719 14.2707 2719.05 14.0192 2719.14C12.5163 2719.5 8.51103 2720.58 8.05795 2723C7.4771 2726.1 11.4641 2725.6 11.0579 2723C10.7275 2720.89 12.921 2719.56 14.0192 2719.14C14.443 2719.04 14.6679 2719 14.5579 2719Z" fill="#282861"/>
<path d="M3.58118 2716.12C8.3988 2717.08 10.8732 2717.57 15 2718.53C15 2718.53 8.31319 2719.43 3.58118 2719.96C-1.15083 2720.49 -1.23644 2715.15 3.58118 2716.12Z" fill="#282861"/>
<path d="M14.5579 2754.14C14.4648 2754.14 14.2707 2754.09 14.0192 2754C12.5163 2753.64 8.51103 2752.56 8.05795 2750.14C7.4771 2747.04 11.4641 2747.54 11.0579 2750.14C10.7275 2752.25 12.921 2753.58 14.0192 2754C14.443 2754.1 14.6679 2754.14 14.5579 2754.14Z" fill="#282861"/>
<path d="M14.5579 2755C14.4648 2755 14.2707 2755.05 14.0192 2755.14C12.5163 2755.5 8.51103 2756.58 8.05795 2759C7.4771 2762.1 11.4641 2761.6 11.0579 2759C10.7275 2756.89 12.921 2755.56 14.0192 2755.14C14.443 2755.04 14.6679 2755 14.5579 2755Z" fill="#282861"/>
<path d="M3.58118 2752.12C8.3988 2753.08 10.8732 2753.57 15 2754.53C15 2754.53 8.31319 2755.43 3.58118 2755.96C-1.15083 2756.49 -1.23644 2751.15 3.58118 2752.12Z" fill="#282861"/>
<path fill-rule="evenodd" clip-rule="evenodd" d="M2 2376H43V2796H14.151L17.1016 2793.11C18.2222 2792.01 18.7826 2791.46 18.878 2790.79C18.9031 2790.61 18.9043 2790.43 18.8815 2790.26C18.795 2789.58 18.242 2789.03 17.1359 2787.91L2 2772.7V2771.9L17.1016 2757.11C18.2222 2756.01 18.7826 2755.46 18.878 2754.79C18.9031 2754.61 18.9043 2754.43 18.8815 2754.26C18.795 2753.58 18.242 2753.03 17.1359 2751.91L2 2736.7V2735.9L17.1016 2721.11C18.2222 2720.01 18.7826 2719.46 18.878 2718.79C18.9031 2718.61 18.9043 2718.43 18.8815 2718.26C18.795 2717.58 18.242 2717.03 17.1359 2715.91L2 2700.7V2699.9L17.1016 2685.11C18.2222 2684.01 18.7826 2683.46 18.878 2682.79C18.9031 2682.61 18.9043 2682.43 18.8815 2682.26C18.795 2681.58 18.242 2681.03 17.1359 2679.91L2 2664.7V2663.9L17.1016 2649.11C18.2222 2648.01 18.7826 2647.46 18.878 2646.79C18.9031 2646.61 18.9043 2646.43 18.8815 2646.26C18.795 2645.58 18.242 2645.03 17.1359 2643.91L2 2628.7V2627.9L17.1016 2613.11L17.1017 2613.11C18.2223 2612.01 18.7826 2611.46 18.878 2610.79C18.9031 2610.61 18.9043 2610.43 18.8815 2610.26C18.795 2609.58 18.242 2609.03 17.1359 2607.91L2 2592.7V2591.9L17.1016 2577.11L17.1017 2577.11C18.2223 2576.01 18.7826 2575.46 18.878 2574.79C18.9031 2574.61 18.9043 2574.43 18.8815 2574.26C18.795 2573.58 18.242 2573.03 17.1359 2571.91L2 2556.7V2555.9L17.1016 2541.11L17.1017 2541.11C18.2223 2540.01 18.7826 2539.46 18.878 2538.79C18.9031 2538.61 18.9043 2538.43 18.8815 2538.26C18.795 2537.58 18.242 2537.03 17.1359 2535.91L2 2520.7V2519.9L17.1016 2505.11C18.2222 2504.01 18.7826 2503.46 18.878 2502.79C18.9031 2502.61 18.9043 2502.43 18.8815 2502.26C18.795 2501.58 18.242 2501.03 17.1359 2499.91L2 2484.7V2483.9L17.1016 2469.11C18.2222 2468.01 18.7826 2467.46 18.878 2466.79C18.9031 2466.61 18.9043 2466.43 18.8815 2466.26C18.795 2465.58 18.242 2465.03 17.1359 2463.91L2 2448.7V2447.9L17.1016 2433.11C18.2222 2432.01 18.7826 2431.46 18.878 2430.79C18.9031 2430.61 18.9043 2430.43 18.8815 2430.26C18.795 2429.58 18.242 2429.03 17.1359 2427.91L2 2412.7V2411.9L17.1016 2397.11C18.2222 2396.01 18.7826 2395.46 18.878 2394.79C18.9031 2394.61 18.9043 2394.43 18.8815 2394.26C18.795 2393.58 18.242 2393.03 17.1359 2391.91L17.1359 2391.91L2 2376.7V2376Z" fill="#282861"/>
<path d="M14.5579 2790.14C14.4648 2790.14 14.2707 2790.09 14.0192 2790C12.5163 2789.64 8.51103 2788.56 8.05795 2786.14C7.4771 2783.04 11.4641 2783.54 11.0579 2786.14C10.7275 2788.25 12.921 2789.58 14.0192 2790C14.443 2790.1 14.6679 2790.14 14.5579 2790.14Z" fill="#282861"/>
<path d="M14.5579 2791C14.4648 2791 14.2707 2791.05 14.0192 2791.14C12.5163 2791.5 8.51103 2792.58 8.05795 2795C7.4771 2798.1 11.4641 2797.6 11.0579 2795C10.7275 2792.89 12.921 2791.56 14.0192 2791.14C14.443 2791.04 14.6679 2791 14.5579 2791Z" fill="#282861"/>
<path d="M3.58118 2788.12C8.3988 2789.08 10.8732 2789.57 15 2790.53C15 2790.53 8.31319 2791.43 3.58118 2791.96C-1.15083 2792.49 -1.23644 2787.15 3.58118 2788.12Z" fill="#282861"/>
</g>
<defs>
<filter id="filter0_i_44_35" x="0" y="0" width="44" height="2800.04" filterUnits="userSpaceOnUse" color-interpolation-filters="sRGB">
<feFlood flood-opacity="0" result="BackgroundImageFix"/>
<feBlend mode="normal" in="SourceGraphic" in2="BackgroundImageFix" result="shape"/>
<feColorMatrix in="SourceAlpha" type="matrix" values="0 0 0 0 0 0 0 0 0 0 0 0 0 0 0 0 0 0 127 0" result="hardAlpha"/>
<feOffset dx="1" dy="4"/>
<feGaussianBlur stdDeviation="1.45"/>
<feComposite in2="hardAlpha" operator="arithmetic" k2="-1" k3="1"/>
<feColorMatrix type="matrix" values="0 0 0 0 0 0 0 0 0 0 0 0 0 0 0 0 0 0 0.35 0"/>
<feBlend mode="normal" in2="shape" result="effect1_innerShadow_44_35"/>
</filter>
</defs>
</svg>
