<svg width="43" height="397" viewBox="0 0 43 397" fill="none" xmlns="http://www.w3.org/2000/svg">
<path d="M14.5579 18.1398C14.4648 18.1398 14.2707 18.0911 14.0192 17.995C12.5163 17.6365 8.51103 16.556 8.05795 14.1398C7.4771 11.0422 11.4641 11.5422 11.0579 14.1398C10.7275 16.2532 12.921 17.5756 14.0192 17.995C14.443 18.0961 14.6679 18.1398 14.5579 18.1398Z" fill="#282861"/>
<path d="M14.5579 19C14.4648 19 14.2707 19.0487 14.0192 19.1448C12.5163 19.5032 8.51103 20.5838 8.05795 23C7.4771 26.0976 11.4641 25.5975 11.0579 23C10.7275 20.8865 12.921 19.5642 14.0192 19.1448C14.443 19.0437 14.6679 19 14.5579 19Z" fill="#282861"/>
<path d="M3.58118 16.1162C8.3988 17.0778 10.8732 17.5662 15 18.5308C15 18.5308 8.31319 19.4319 3.58118 19.9628C-1.15083 20.4937 -1.23644 15.1546 3.58118 16.1162Z" fill="#282861"/>
<path d="M14.5579 54.1398C14.4648 54.1398 14.2707 54.0911 14.0192 53.995C12.5163 53.6365 8.51103 52.556 8.05795 50.1398C7.4771 47.0422 11.4641 47.5422 11.0579 50.1398C10.7275 52.2532 12.921 53.5756 14.0192 53.995C14.443 54.0961 14.6679 54.1398 14.5579 54.1398Z" fill="#282861"/>
<path d="M14.5579 55C14.4648 55 14.2707 55.0487 14.0192 55.1448C12.5163 55.5032 8.51103 56.5838 8.05795 59C7.4771 62.0976 11.4641 61.5975 11.0579 59C10.7275 56.8865 12.921 55.5642 14.0192 55.1448C14.443 55.0437 14.6679 55 14.5579 55Z" fill="#282861"/>
<path d="M3.58118 52.1162C8.3988 53.0778 10.8732 53.5662 15 54.5308C15 54.5308 8.31319 55.4319 3.58118 55.9628C-1.15083 56.4937 -1.23644 51.1546 3.58118 52.1162Z" fill="#282861"/>
<path d="M14.5579 54.1398C14.4648 54.1398 14.2707 54.0911 14.0192 53.995C12.5163 53.6365 8.51103 52.556 8.05795 50.1398C7.4771 47.0422 11.4641 47.5422 11.0579 50.1398C10.7275 52.2532 12.921 53.5756 14.0192 53.995C14.443 54.0961 14.6679 54.1398 14.5579 54.1398Z" fill="#282861"/>
<path d="M14.5579 55C14.4648 55 14.2707 55.0487 14.0192 55.1448C12.5163 55.5032 8.51103 56.5838 8.05795 59C7.4771 62.0976 11.4641 61.5975 11.0579 59C10.7275 56.8865 12.921 55.5642 14.0192 55.1448C14.443 55.0437 14.6679 55 14.5579 55Z" fill="#282861"/>
<path d="M3.58118 52.1162C8.3988 53.0778 10.8732 53.5662 15 54.5308C15 54.5308 8.31319 55.4319 3.58118 55.9628C-1.15083 56.4937 -1.23644 51.1546 3.58118 52.1162Z" fill="#282861"/>
<path d="M14.5579 90.1398C14.4648 90.1398 14.2707 90.0911 14.0192 89.995C12.5163 89.6365 8.51103 88.556 8.05795 86.1398C7.4771 83.0422 11.4641 83.5422 11.0579 86.1398C10.7275 88.2532 12.921 89.5756 14.0192 89.995C14.443 90.0961 14.6679 90.1398 14.5579 90.1398Z" fill="#282861"/>
<path d="M14.5579 91C14.4648 91 14.2707 91.0487 14.0192 91.1448C12.5163 91.5032 8.51103 92.5838 8.05795 95C7.4771 98.0976 11.4641 97.5975 11.0579 95C10.7275 92.8865 12.921 91.5642 14.0192 91.1448C14.443 91.0437 14.6679 91 14.5579 91Z" fill="#282861"/>
<path d="M3.58118 88.1162C8.3988 89.0778 10.8732 89.5662 15 90.5308C15 90.5308 8.31319 91.4319 3.58118 91.9628C-1.15083 92.4937 -1.23644 87.1546 3.58118 88.1162Z" fill="#282861"/>
<path d="M14.5579 126.14C14.4648 126.14 14.2707 126.091 14.0192 125.995C12.5163 125.637 8.51103 124.556 8.05795 122.14C7.4771 119.042 11.4641 119.542 11.0579 122.14C10.7275 124.253 12.921 125.576 14.0192 125.995C14.443 126.096 14.6679 126.14 14.5579 126.14Z" fill="#282861"/>
<path d="M14.5579 127C14.4648 127 14.2707 127.049 14.0192 127.145C12.5163 127.503 8.51103 128.584 8.05795 131C7.4771 134.098 11.4641 133.598 11.0579 131C10.7275 128.887 12.921 127.564 14.0192 127.145C14.443 127.044 14.6679 127 14.5579 127Z" fill="#282861"/>
<path d="M3.58118 124.116C8.3988 125.078 10.8732 125.566 15 126.531C15 126.531 8.31319 127.432 3.58118 127.963C-1.15083 128.494 -1.23644 123.155 3.58118 124.116Z" fill="#282861"/>
<path d="M14.5579 162.14C14.4648 162.14 14.2707 162.091 14.0192 161.995C12.5163 161.637 8.51103 160.556 8.05795 158.14C7.4771 155.042 11.4641 155.542 11.0579 158.14C10.7275 160.253 12.921 161.576 14.0192 161.995C14.443 162.096 14.6679 162.14 14.5579 162.14Z" fill="#282861"/>
<path d="M14.5579 163C14.4648 163 14.2707 163.049 14.0192 163.145C12.5163 163.503 8.51103 164.584 8.05795 167C7.4771 170.098 11.4641 169.598 11.0579 167C10.7275 164.887 12.921 163.564 14.0192 163.145C14.443 163.044 14.6679 163 14.5579 163Z" fill="#282861"/>
<path d="M3.58118 160.116C8.3988 161.078 10.8732 161.566 15 162.531C15 162.531 8.31319 163.432 3.58118 163.963C-1.15083 164.494 -1.23644 159.155 3.58118 160.116Z" fill="#282861"/>
<path d="M14.5579 198.14C14.4648 198.14 14.2707 198.091 14.0192 197.995C12.5163 197.637 8.51103 196.556 8.05795 194.14C7.4771 191.042 11.4641 191.542 11.0579 194.14C10.7275 196.253 12.921 197.576 14.0192 197.995C14.443 198.096 14.6679 198.14 14.5579 198.14Z" fill="#282861"/>
<path d="M14.5579 199C14.4648 199 14.2707 199.049 14.0192 199.145C12.5163 199.503 8.51103 200.584 8.05795 203C7.4771 206.098 11.4641 205.598 11.0579 203C10.7275 200.887 12.921 199.564 14.0192 199.145C14.443 199.044 14.6679 199 14.5579 199Z" fill="#282861"/>
<path d="M3.58118 196.116C8.3988 197.078 10.8732 197.566 15 198.531C15 198.531 8.31319 199.432 3.58118 199.963C-1.15083 200.494 -1.23644 195.155 3.58118 196.116Z" fill="#282861"/>
<path d="M14.5579 234.14C14.4648 234.14 14.2707 234.091 14.0192 233.995C12.5163 233.637 8.51103 232.556 8.05795 230.14C7.4771 227.042 11.4641 227.542 11.0579 230.14C10.7275 232.253 12.921 233.576 14.0192 233.995C14.443 234.096 14.6679 234.14 14.5579 234.14Z" fill="#282861"/>
<path d="M14.5579 235C14.4648 235 14.2707 235.049 14.0192 235.145C12.5163 235.503 8.51103 236.584 8.05795 239C7.4771 242.098 11.4641 241.598 11.0579 239C10.7275 236.887 12.921 235.564 14.0192 235.145C14.443 235.044 14.6679 235 14.5579 235Z" fill="#282861"/>
<path d="M3.58118 232.116C8.3988 233.078 10.8732 233.566 15 234.531C15 234.531 8.31319 235.432 3.58118 235.963C-1.15083 236.494 -1.23644 231.155 3.58118 232.116Z" fill="#282861"/>
<path d="M14.5579 270.14C14.4648 270.14 14.2707 270.091 14.0192 269.995C12.5163 269.637 8.51103 268.556 8.05795 266.14C7.4771 263.042 11.4641 263.542 11.0579 266.14C10.7275 268.253 12.921 269.576 14.0192 269.995C14.443 270.096 14.6679 270.14 14.5579 270.14Z" fill="#282861"/>
<path d="M14.5579 271C14.4648 271 14.2707 271.049 14.0192 271.145C12.5163 271.503 8.51103 272.584 8.05795 275C7.4771 278.098 11.4641 277.598 11.0579 275C10.7275 272.887 12.921 271.564 14.0192 271.145C14.443 271.044 14.6679 271 14.5579 271Z" fill="#282861"/>
<path d="M3.58118 268.116C8.3988 269.078 10.8732 269.566 15 270.531C15 270.531 8.31319 271.432 3.58118 271.963C-1.15083 272.494 -1.23644 267.155 3.58118 268.116Z" fill="#282861"/>
<path d="M14.5579 306.14C14.4648 306.14 14.2707 306.091 14.0192 305.995C12.5163 305.637 8.51103 304.556 8.05795 302.14C7.4771 299.042 11.4641 299.542 11.0579 302.14C10.7275 304.253 12.921 305.576 14.0192 305.995C14.443 306.096 14.6679 306.14 14.5579 306.14Z" fill="#282861"/>
<path d="M14.5579 307C14.4648 307 14.2707 307.049 14.0192 307.145C12.5163 307.503 8.51103 308.584 8.05795 311C7.4771 314.098 11.4641 313.598 11.0579 311C10.7275 308.887 12.921 307.564 14.0192 307.145C14.443 307.044 14.6679 307 14.5579 307Z" fill="#282861"/>
<path d="M3.58118 304.116C8.3988 305.078 10.8732 305.566 15 306.531C15 306.531 8.31319 307.432 3.58118 307.963C-1.15083 308.494 -1.23644 303.155 3.58118 304.116Z" fill="#282861"/>
<path d="M14.5579 342.14C14.4648 342.14 14.2707 342.091 14.0192 341.995C12.5163 341.637 8.51103 340.556 8.05795 338.14C7.4771 335.042 11.4641 335.542 11.0579 338.14C10.7275 340.253 12.921 341.576 14.0192 341.995C14.443 342.096 14.6679 342.14 14.5579 342.14Z" fill="#282861"/>
<path d="M14.5579 343C14.4648 343 14.2707 343.049 14.0192 343.145C12.5163 343.503 8.51103 344.584 8.05795 347C7.4771 350.098 11.4641 349.598 11.0579 347C10.7275 344.887 12.921 343.564 14.0192 343.145C14.443 343.044 14.6679 343 14.5579 343Z" fill="#282861"/>
<path d="M3.58118 340.116C8.3988 341.078 10.8732 341.566 15 342.531C15 342.531 8.31319 343.432 3.58118 343.963C-1.15083 344.494 -1.23644 339.155 3.58118 340.116Z" fill="#282861"/>
<path d="M14.5579 378.14C14.4648 378.14 14.2707 378.091 14.0192 377.995C12.5163 377.637 8.51103 376.556 8.05795 374.14C7.4771 371.042 11.4641 371.542 11.0579 374.14C10.7275 376.253 12.921 377.576 14.0192 377.995C14.443 378.096 14.6679 378.14 14.5579 378.14Z" fill="#282861"/>
<path d="M14.5579 379C14.4648 379 14.2707 379.049 14.0192 379.145C12.5163 379.503 8.51103 380.584 8.05795 383C7.4771 386.098 11.4641 385.598 11.0579 383C10.7275 380.887 12.921 379.564 14.0192 379.145C14.443 379.044 14.6679 379 14.5579 379Z" fill="#282861"/>
<path d="M3.58118 376.116C8.3988 377.078 10.8732 377.566 15 378.531C15 378.531 8.31319 379.432 3.58118 379.963C-1.15083 380.494 -1.23644 375.155 3.58118 376.116Z" fill="#282861"/>
<path fill-rule="evenodd" clip-rule="evenodd" d="M43 0H2V0.696879L17.1359 15.9147L17.136 15.9148C18.242 17.0268 18.795 17.5828 18.8815 18.2569C18.9043 18.4346 18.9031 18.6146 18.878 18.792C18.7826 19.4649 18.2222 20.0136 17.1016 21.1109L2 35.8977V36.6969L17.1359 51.9147C18.242 53.0268 18.795 53.5828 18.8815 54.2569C18.9043 54.4346 18.9031 54.6146 18.878 54.792C18.7826 55.4649 18.2222 56.0136 17.1016 57.1109L2 71.8977V72.6969L17.1359 87.9147C18.242 89.0268 18.795 89.5828 18.8815 90.2569C18.9043 90.4346 18.9031 90.6146 18.878 90.792C18.7826 91.4649 18.2222 92.0136 17.1016 93.1109L2 107.898V108.697L17.1359 123.915C18.242 125.027 18.795 125.583 18.8815 126.257C18.9043 126.435 18.9031 126.615 18.878 126.792C18.7826 127.465 18.2222 128.014 17.1016 129.111L2 143.898V144.697L17.1359 159.915C18.242 161.027 18.795 161.583 18.8815 162.257C18.9043 162.435 18.9031 162.615 18.878 162.792C18.7826 163.465 18.2223 164.014 17.1017 165.111L17.1016 165.111L2 179.898V180.697L17.1359 195.915C18.242 197.027 18.795 197.583 18.8815 198.257C18.9043 198.435 18.9031 198.615 18.878 198.792C18.7826 199.465 18.2223 200.014 17.1017 201.111L17.1016 201.111L2 215.898V216.697L17.1359 231.915C18.242 233.027 18.795 233.583 18.8815 234.257C18.9043 234.435 18.9031 234.615 18.878 234.792C18.7826 235.465 18.2223 236.014 17.1017 237.111L17.1016 237.111L2 251.898V252.697L17.1359 267.915C18.242 269.027 18.795 269.583 18.8815 270.257C18.9043 270.435 18.9031 270.615 18.878 270.792C18.7826 271.465 18.2222 272.014 17.1016 273.111L2 287.898V288.697L17.1359 303.915C18.242 305.027 18.795 305.583 18.8815 306.257C18.9043 306.435 18.9031 306.615 18.878 306.792C18.7826 307.465 18.2222 308.014 17.1016 309.111L2 323.898V324.697L17.1359 339.915C18.242 341.027 18.795 341.583 18.8815 342.257C18.9043 342.435 18.9031 342.615 18.878 342.792C18.7826 343.465 18.2222 344.014 17.1016 345.111L2 359.898V360.697L17.1359 375.915C18.242 377.027 18.795 377.583 18.8815 378.257C18.9043 378.435 18.9031 378.615 18.878 378.792C18.7826 379.465 18.2222 380.014 17.1016 381.111L2 395.898V396.5H43V0Z" fill="#282861"/>
</svg>
